# This file uses centimeters as units for non-parametric coordinates.

mtllib Gemstone.mtl
g default
v -68.000000 0.000004 0.000000
v -68.000000 18.011986 -0.000001
v -58.670403 -0.000000 -10.304259
v -57.509777 0.721284 -12.187397
v -78.490211 0.721284 -12.187397
v -77.329590 -0.000000 -10.304259
v -88.918480 0.686126 -0.000002
v -86.198921 -0.000000 -0.000002
v -78.490219 0.721284 12.187397
v -77.275787 -0.000000 10.186954
v -57.509781 0.721284 12.187397
v -58.670403 -0.000000 10.304259
v -47.081520 0.686126 -0.000001
v -49.801086 -0.000000 -0.000001
v -57.509781 17.290722 -12.187397
v -58.670403 18.011986 -10.304259
v -77.329590 18.011986 -10.304259
v -78.490211 17.290722 -12.187397
v -86.198921 18.011986 -0.000002
v -88.918480 17.325871 -0.000002
v -77.275787 18.011986 10.186954
v -78.490219 17.290722 12.187397
v -58.670403 18.011986 10.304259
v -57.509781 17.290722 12.187397
v -49.801086 18.011986 -0.000000
v -47.081520 17.325871 0.000000
v -50.939995 8.177601 -19.820063
v -50.939995 9.834379 -19.820068
v -85.059982 8.177601 -19.820063
v -85.059982 9.834379 -19.820063
v -102.119980 8.177601 -0.000003
v -102.119980 9.834379 -0.000003
v -85.059990 8.177601 19.820063
v -85.059990 9.834379 19.820063
v -50.940006 8.177601 19.820063
v -50.940006 9.834379 19.820063
v -33.880016 8.177601 -0.000000
v -33.880013 9.834379 0.000000
vt 0.979031 0.263340
vt 0.979031 0.335851
vt 0.659677 0.335852
vt 0.659677 0.263340
vt 0.635382 0.839389
vt 0.652224 0.866715
vt 0.340323 0.335852
vt 0.340323 0.263340
vt 0.803548 0.689863
vt 0.764085 0.689863
vt 0.364618 0.839389
vt 0.347776 0.866715
vt 0.235915 0.689863
vt 0.196451 0.689863
vt 0.365399 0.542040
vt 0.347776 0.513012
vt 0.635382 0.540338
vt 0.652224 0.513012
vt 0.659677 0.164148
vt 0.340323 0.164148
vt 0.652224 0.866715
vt 0.635382 0.839389
vt 0.340323 0.236660
vt 0.659677 0.236660
vt 0.764085 0.689863
vt 0.803548 0.689863
vt 0.979031 0.164148
vt 0.347776 0.866715
vt 0.020969 0.335852
vt 0.364618 0.839389
vt 0.196451 0.689863
vt 0.235915 0.689863
vt 0.347776 0.513012
vt 0.365399 0.542040
vt 0.652224 0.513012
vt 0.635382 0.540338
vt 0.500000 0.689863
vt 0.500000 0.689863
vt 0.252442 0.977473
vt 0.747558 0.977473
vt 0.004884 0.689863
vt 0.252442 0.402254
vt 0.747558 0.402254
vt 0.995116 0.689863
vt 0.747558 0.977473
vt 0.252442 0.977473
vt 0.004884 0.689863
vt 0.252442 0.402254
vt 0.747558 0.402254
vt 0.995116 0.689863
vt 0.020969 0.164148
vt 0.020969 0.236660
vt 0.020969 0.263340
vt 0.979031 0.236660
vn 0.242113 -0.947424 -0.209211
vn 0.437858 -0.816203 -0.376953
vn 0.445020 -0.809446 -0.383087
vn 0.242113 -0.947424 -0.209211
vn 0.000000 -0.732628 -0.680629
vn 0.000000 -0.933843 -0.357683
vn 0.000000 -0.933843 -0.357683
vn 0.000000 -0.732628 -0.680629
vn -0.437858 -0.816202 -0.376954
vn -0.242112 -0.947424 -0.209211
vn -0.242112 -0.947424 -0.209211
vn -0.445020 -0.809445 -0.383087
vn -0.444548 -0.809858 0.382763
vn -0.235517 -0.949963 0.205189
vn -0.235517 -0.949963 0.205189
vn -0.437129 -0.816816 0.376470
vn -0.000067 -0.733510 0.679678
vn -0.001032 -0.937422 0.348194
vn -0.001032 -0.937422 0.348194
vn -0.000067 -0.733457 0.679736
vn 0.437858 -0.816202 0.376953
vn 0.242112 -0.947424 0.209210
vn 0.242112 -0.947424 0.209210
vn 0.445020 -0.809445 0.383087
vn 0.437859 0.816202 -0.376953
vn 0.242107 0.947426 -0.209206
vn 0.242107 0.947426 -0.209206
vn 0.445020 0.809445 -0.383087
vn 0.000000 0.933846 -0.357674
vn -0.000000 0.732628 -0.680630
vn -0.000000 0.732627 -0.680630
vn 0.000000 0.933846 -0.357674
vn -0.242107 0.947426 -0.209206
vn -0.437859 0.816202 -0.376954
vn -0.445020 0.809445 -0.383088
vn -0.242107 0.947426 -0.209206
vn -0.235512 0.949965 0.205185
vn -0.444548 0.809857 0.382764
vn -0.437129 0.816816 0.376470
vn -0.235512 0.949965 0.205185
vn -0.001032 0.937425 0.348185
vn -0.000067 0.733510 0.679679
vn -0.000067 0.733456 0.679737
vn -0.001032 0.937425 0.348185
vn 0.242107 0.947426 0.209206
vn 0.437859 0.816202 0.376954
vn 0.445020 0.809445 0.383088
vn 0.242107 0.947426 0.209206
vn 0.000000 -1.000000 0.000000
vn 0.000000 -1.000000 0.000000
vn 0.000000 -1.000000 0.000000
vn 0.000000 -1.000000 0.000000
vn 0.000000 -1.000000 0.000000
vn 0.000000 -1.000000 0.000000
vn 0.000000 -1.000000 -0.000000
vn 0.000000 -1.000000 -0.000000
vn 0.000000 -1.000000 -0.000000
vn 0.000000 -1.000000 -0.000000
vn 0.000000 -1.000000 -0.000000
vn 0.000000 -1.000000 -0.000000
vn -0.000000 -1.000000 -0.000000
vn -0.000000 -1.000000 -0.000000
vn -0.000000 -1.000000 -0.000000
vn -0.000000 -1.000000 0.000000
vn -0.000000 -1.000000 0.000000
vn -0.000000 -1.000000 0.000000
vn 0.000000 1.000000 0.000000
vn 0.000000 1.000000 0.000000
vn 0.000000 1.000000 0.000000
vn 0.000000 1.000000 0.000000
vn 0.000000 1.000000 0.000000
vn 0.000000 1.000000 0.000000
vn 0.000000 1.000000 0.000000
vn 0.000000 1.000000 0.000000
vn 0.000000 1.000000 0.000000
vn 0.000000 1.000000 -0.000000
vn 0.000000 1.000000 -0.000000
vn 0.000000 1.000000 -0.000000
vn 0.000000 1.000000 0.000000
vn 0.000000 1.000000 0.000000
vn 0.000000 1.000000 0.000000
vn 0.000000 1.000000 0.000000
vn 0.000000 1.000000 0.000000
vn 0.000000 1.000000 0.000000
vn 0.757907 -0.000001 -0.652363
vn 0.757907 -0.000001 -0.652363
vn 0.757907 -0.000001 -0.652363
vn 0.757907 -0.000001 -0.652363
vn 0.000000 -0.000002 -1.000000
vn 0.000000 -0.000002 -1.000000
vn 0.000000 -0.000002 -1.000000
vn 0.000000 -0.000002 -1.000000
vn -0.757906 0.000000 -0.652363
vn -0.757906 0.000000 -0.652363
vn -0.757906 0.000000 -0.652363
vn -0.757906 0.000000 -0.652363
vn -0.757907 0.000000 0.652363
vn -0.757907 0.000000 0.652363
vn -0.757907 0.000000 0.652363
vn -0.757907 0.000000 0.652363
vn 0.000000 0.000000 1.000000
vn 0.000000 0.000000 1.000000
vn 0.000000 0.000000 1.000000
vn 0.000000 0.000000 1.000000
vn 0.757906 0.000000 0.652363
vn 0.757906 0.000000 0.652363
vn 0.757906 0.000000 0.652363
vn 0.757906 0.000000 0.652363
vn 0.000000 -0.715322 -0.698795
vn 0.000000 -0.715322 -0.698795
vn -0.454253 -0.800486 -0.390995
vn -0.454253 -0.800486 -0.390995
vn -0.454253 -0.800486 0.390995
vn -0.454253 -0.800486 0.390995
vn 0.000000 -0.715322 0.698795
vn 0.000000 -0.715322 0.698795
vn 0.454253 -0.800486 0.390995
vn 0.454253 -0.800486 0.390995
vn 0.454253 -0.800486 -0.390995
vn 0.454253 -0.800486 -0.390995
vn -0.000000 0.715321 -0.698796
vn -0.000000 0.715321 -0.698796
vn -0.454254 0.800485 -0.390996
vn -0.454254 0.800485 -0.390996
vn -0.454254 0.800485 0.390996
vn -0.454254 0.800485 0.390996
vn 0.000000 0.715321 0.698796
vn 0.000000 0.715321 0.698796
vn 0.454254 0.800485 0.390996
vn 0.454254 0.800485 0.390996
vn 0.454254 0.800485 -0.390995
vn 0.454254 0.800485 -0.390995
s 1
g Gemstone1
usemtl initialShadingGroup
f 3/5/1 4/6/2 13/9/3 14/10/4
s 2
f 4/6/5 3/5/6 6/11/7 5/12/8
s 3
f 5/12/9 6/11/10 8/13/11 7/14/12
s 4
f 7/14/13 8/13/14 10/15/15 9/16/16
s 5
f 9/16/17 10/15/18 12/17/19 11/18/20
s 6
f 11/18/21 12/17/22 14/10/23 13/9/24
s 7
f 15/21/25 16/22/26 25/25/27 26/26/28
s 8
f 16/22/29 15/21/30 18/28/31 17/30/32
s 9
f 17/30/33 18/28/34 20/31/35 19/32/36
s 10
f 19/32/37 20/31/38 22/33/39 21/34/40
s 11
f 21/34/41 22/33/42 24/35/43 23/36/44
s 12
f 23/36/45 24/35/46 26/26/47 25/25/48
s off
f 6/11/49 3/5/50 1/37/51
f 8/13/52 6/11/53 1/37/54
f 10/15/55 8/13/56 1/37/57
f 12/17/58 10/15/59 1/37/60
f 14/10/61 12/17/62 1/37/63
f 3/5/64 14/10/65 1/37/66
f 16/22/67 17/30/68 2/38/69
f 17/30/70 19/32/71 2/38/72
f 19/32/73 21/34/74 2/38/75
f 21/34/76 23/36/77 2/38/78
f 23/36/79 25/25/80 2/38/81
f 25/25/82 16/22/83 2/38/84
f 27/1/85 28/2/86 38/3/87 37/4/88
f 28/52/89 27/51/90 29/20/91 30/23/92
f 30/23/93 29/20/94 31/19/95 32/24/96
f 32/24/97 31/19/98 33/27/99 34/54/100
f 34/29/101 33/53/102 35/8/103 36/7/104
f 36/7/105 35/8/106 37/4/107 38/3/108
s 2
f 29/39/109 27/40/110 4/6/5 5/12/8
s 3
f 31/41/111 29/39/112 5/12/9 7/14/12
s 4
f 33/42/113 31/41/114 7/14/13 9/16/16
s 5
f 35/43/115 33/42/116 9/16/17 11/18/20
s 6
f 37/44/117 35/43/118 11/18/21 13/9/24
s 1
f 27/40/119 37/44/120 13/9/3 4/6/2
s 8
f 28/45/121 30/46/122 18/28/31 15/21/30
s 9
f 30/46/123 32/47/124 20/31/35 18/28/34
s 10
f 32/47/125 34/48/126 22/33/39 20/31/38
s 11
f 34/48/127 36/49/128 24/35/43 22/33/42
s 12
f 36/49/129 38/50/130 26/26/47 24/35/46
s 7
f 38/50/131 28/45/132 15/21/25 26/26/28
