# This file uses centimeters as units for non-parametric coordinates.

mtllib Shilling.mtl
g default
v -48.174751 16.916805 -0.000546
v -69.247200 16.916803 -12.852665
v -69.247314 16.916859 -5.140745
v -73.596985 16.916859 -2.570106
v -77.941727 16.951187 -11.556267
v -77.941406 16.985571 -2.471908
v -73.596985 16.916859 -0.000542
v -77.941956 16.978268 -0.000005
v -85.809235 16.937813 -16.098183
v -85.808914 16.972195 -7.013824
v -48.174870 15.777460 -0.000541
v -69.247299 15.777473 -0.000532
v -69.247314 15.777460 -5.140745
v -69.247314 15.777460 -12.852659
v -73.596985 15.777460 -0.000540
v -73.596985 15.777460 -2.570106
v -78.711411 17.818621 -19.311260
v -78.711136 17.847954 -11.560499
v -84.653732 17.836168 -15.435682
v -84.653458 17.865503 -7.684919
v -78.710876 17.877289 -3.809737
v -69.247314 16.916859 12.852650
v -69.247314 16.916859 5.140736
v -73.596985 16.916859 2.570097
v -77.941841 16.951244 11.556248
v -77.941406 16.985571 2.471885
v -85.809235 16.937813 16.098158
v -85.808914 16.972195 7.013801
v -69.247314 15.777460 5.140736
v -69.247314 15.777460 12.852650
v -73.596985 15.777460 2.570097
v -78.711411 17.818621 19.311235
v -78.711136 17.847954 11.560474
v -84.653732 17.836168 15.435658
v -84.653458 17.865503 7.684896
v -78.710876 17.877289 3.809714
v -43.951878 16.916805 -0.000527
v -43.166203 16.112507 -0.569259
v -43.166306 16.112564 0.568193
v -77.309906 16.184145 -20.272657
v -78.440689 17.186573 -20.089550
v -78.440681 17.186569 20.089514
v -77.310013 16.184195 20.272610
v -77.941727 17.163034 -19.236221
v -77.941841 17.163036 19.236187
v -48.174751 0.902871 -0.000546
v -69.247200 0.902873 -12.852665
v -69.247314 0.902816 -5.140745
v -73.596985 0.902816 -2.570106
v -77.941727 0.868488 -11.556267
v -77.941406 0.834105 -2.471908
v -73.596985 0.902816 -0.000542
v -77.941956 0.841407 -0.000005
v -85.809235 0.881863 -16.098183
v -85.808914 0.847481 -7.013824
v -48.174870 2.042215 -0.000541
v -69.247299 2.042202 -0.000532
v -69.247314 2.042215 -5.140745
v -69.247314 2.042215 -12.852659
v -73.596985 2.042215 -0.000540
v -73.596985 2.042215 -2.570106
v -78.711411 0.001055 -19.311260
v -78.711136 -0.028278 -11.560499
v -84.653732 -0.016492 -15.435682
v -84.653458 -0.045827 -7.684919
v -78.710876 -0.057613 -3.809737
v -69.247314 0.902816 12.852650
v -69.247314 0.902816 5.140736
v -73.596985 0.902816 2.570097
v -77.941841 0.868432 11.556248
v -77.941406 0.834105 2.471885
v -85.809235 0.881863 16.098158
v -85.808914 0.847481 7.013801
v -69.247314 2.042215 5.140736
v -69.247314 2.042215 12.852650
v -73.596985 2.042215 2.570097
v -78.711411 0.001055 19.311235
v -78.711136 -0.028278 11.560474
v -84.653732 -0.016492 15.435658
v -84.653458 -0.045827 7.684896
v -78.710876 -0.057613 3.809714
v -43.951878 0.902871 -0.000527
v -43.166203 1.707168 -0.569259
v -43.166306 1.707112 0.568193
v -77.309906 1.635531 -20.272657
v -78.440689 0.633103 -20.089550
v -78.440681 0.633106 20.089514
v -77.310013 1.635480 20.272610
v -77.941727 0.656641 -19.236221
v -77.941841 0.656639 19.236187
vt 0.177649 0.631211
vt 0.265596 0.633199
vt 0.353649 0.685238
vt 0.353651 0.841355
vt 0.177643 0.815111
vt 0.780231 0.581182
vt 0.353649 0.841355
vt 0.353649 0.685238
vt 0.353649 0.581182
vt 0.265596 0.633199
vt 0.265596 0.581182
vt 0.177638 0.581171
vt 0.265596 0.581182
vt 0.162061 0.972100
vt 0.041768 0.893644
vt 0.162067 0.815197
vt 0.041773 0.736741
vt 0.162072 0.658294
vt 0.780233 0.581182
vt 0.018383 0.723156
vt 0.018376 0.907056
vt 0.177649 0.531131
vt 0.177640 0.347231
vt 0.353649 0.320987
vt 0.353649 0.477104
vt 0.265596 0.529143
vt 0.353649 0.477104
vt 0.353649 0.320987
vt 0.596742 0.989838
vt 0.511137 0.836940
vt 0.597463 0.788178
vt 0.683434 0.941731
vt 0.265596 0.529143
vt 0.162061 0.190242
vt 0.162067 0.347145
vt 0.041768 0.268698
vt 0.683901 0.739616
vt 0.770014 0.893423
vt 0.707479 0.726506
vt 0.793515 0.880175
vt 0.903531 0.818503
vt 0.817560 0.664950
vt 0.904252 0.616843
vt 0.989857 0.769741
vt 0.817093 0.867065
vt 0.730980 0.713257
vt 0.041773 0.425601
vt 0.162072 0.504049
vt 0.018383 0.439186
vt 0.018376 0.255286
vt 0.972568 0.550202
vt 0.972568 0.398841
vt 0.984519 0.398842
vt 0.984519 0.550202
vt 0.865719 0.581182
vt 0.167542 0.174487
vt 0.190431 0.170781
vt 0.881622 0.569669
vt 0.881624 0.592695
vt 0.190433 0.991562
vt 0.167542 0.987855
vt 0.177643 0.970581
vt 0.177640 0.191761
vt 0.177649 0.631211
vt 0.177643 0.815111
vt 0.353651 0.841355
vt 0.353649 0.685238
vt 0.265596 0.633199
vt 0.780231 0.581182
vt 0.353649 0.581182
vt 0.353649 0.685238
vt 0.353649 0.841355
vt 0.265596 0.581182
vt 0.265596 0.633199
vt 0.177638 0.581171
vt 0.265596 0.581182
vt 0.162061 0.972100
vt 0.162067 0.815197
vt 0.041768 0.893644
vt 0.041773 0.736741
vt 0.162072 0.658294
vt 0.780233 0.581182
vt 0.018383 0.723156
vt 0.018376 0.907056
vt 0.177649 0.531131
vt 0.265596 0.529143
vt 0.353649 0.477104
vt 0.353649 0.320987
vt 0.177640 0.347231
vt 0.353649 0.320987
vt 0.353649 0.477104
vt 0.265596 0.529143
vt 0.162061 0.190242
vt 0.041768 0.268698
vt 0.162067 0.347145
vt 0.041773 0.425601
vt 0.162072 0.504049
vt 0.018383 0.439186
vt 0.018376 0.255286
vt 0.865719 0.581182
vt 0.881622 0.569669
vt 0.190431 0.170781
vt 0.167542 0.174487
vt 0.881624 0.592695
vt 0.167542 0.987855
vt 0.190433 0.991562
vt 0.177643 0.970581
vt 0.177640 0.191761
vt 0.576166 0.234107
vt 0.576166 0.369638
vt 0.977363 0.377402
vt 0.977364 0.226343
vt 0.897400 0.233433
vt 0.897400 0.370312
vt 0.908038 0.379742
vt 0.908038 0.224002
vt 0.977365 0.216312
vt 0.977365 0.065253
vt 0.576166 0.073017
vt 0.576166 0.208547
vt 0.908039 0.218652
vt 0.908039 0.062912
vt 0.897400 0.072343
vt 0.897400 0.209221
vt 0.019145 0.025867
vt 0.019142 0.012193
vt 0.980838 0.032298
vt 0.980859 0.045972
vt 0.235195 0.047170
vt 0.235172 0.033495
vt 0.388389 0.046919
vt 0.388367 0.033245
vt 0.111698 0.012171
vt 0.111701 0.025846
vt 0.979697 0.025546
vt 0.979692 0.011872
vt 0.683465 0.025626
vt 0.683460 0.011952
vt 0.203175 0.012148
vt 0.203179 0.025823
vt 0.172340 0.025831
vt 0.172336 0.012157
vt 0.294665 0.012116
vt 0.387221 0.012078
vt 0.387227 0.025753
vt 0.294670 0.025790
vt 0.234027 0.012138
vt 0.234032 0.025813
vt 0.112866 0.047381
vt 0.020310 0.047542
vt 0.020285 0.033868
vt 0.112842 0.033706
vt 0.684628 0.046459
vt 0.684606 0.032785
vt 0.204343 0.047222
vt 0.173504 0.047275
vt 0.173480 0.033600
vt 0.204320 0.033547
vt 0.295833 0.047069
vt 0.295811 0.033394
vn 0.007317 0.999973 0.000179
vn 0.006881 0.999976 0.000107
vn 0.006214 0.999981 -0.000004
vn -0.013341 0.999314 0.034547
vn 0.006734 0.999946 0.007901
vn -0.000000 1.000000 -0.000001
vn -0.000000 1.000000 -0.000001
vn -0.000000 1.000000 -0.000001
vn -0.000000 1.000000 -0.000001
vn -0.000000 1.000000 -0.000001
vn -0.000002 1.000000 -0.000002
vn -0.000002 1.000000 -0.000002
vn -0.000000 1.000000 -0.000001
vn 0.014989 0.999887 0.001450
vn 0.014989 0.999887 0.001450
vn 0.006881 0.999976 0.000107
vn 0.007317 0.999973 0.000179
vn 0.000485 0.999993 -0.003785
vn 0.000485 0.999993 -0.003785
vn 0.000485 0.999993 -0.003785
vn 0.000485 0.999993 -0.003785
vn 0.000485 0.999993 -0.003785
vn 0.000485 0.999993 -0.003785
vn 0.000485 0.999993 -0.003785
vn 0.000485 0.999993 -0.003785
vn 0.000485 0.999993 -0.003785
vn 1.000000 -0.000049 0.000007
vn 1.000000 -0.000049 0.000007
vn 1.000000 -0.000049 0.000007
vn 1.000000 -0.000049 0.000007
vn -0.520698 0.000055 0.853741
vn -0.520698 0.000055 0.853741
vn -0.520698 0.000055 0.853741
vn -0.520698 0.000055 0.853741
vn 1.000000 -0.000001 0.000000
vn 1.000000 -0.000001 0.000000
vn 1.000000 -0.000001 0.000000
vn 1.000000 -0.000001 0.000000
vn 0.508785 -0.000000 0.860894
vn 0.508785 -0.000000 0.860894
vn 0.508785 -0.000000 0.860894
vn 0.508785 -0.000000 0.860894
vn -0.612719 0.790295 -0.002969
vn -0.612719 0.790295 -0.002969
vn -0.612719 0.790295 -0.002969
vn -0.612719 0.790295 -0.002969
vn 0.786885 0.617032 -0.009080
vn 0.787546 0.616187 -0.009240
vn 0.758943 0.651153 -0.002491
vn 0.758943 0.651153 -0.002491
vn -0.355822 0.731513 0.581617
vn -0.355822 0.731514 0.581617
vn -0.355822 0.731513 0.581617
vn -0.355822 0.731513 0.581617
vn 0.007319 0.999973 -0.000185
vn 0.006734 0.999946 -0.007904
vn -0.013337 0.999314 -0.034540
vn 0.006215 0.999981 -0.000003
vn 0.006882 0.999976 -0.000113
vn 0.000000 1.000000 0.000001
vn 0.000000 1.000000 0.000001
vn 0.000000 1.000000 0.000001
vn 0.000000 1.000000 0.000001
vn 0.000000 1.000000 0.000001
vn 0.000000 1.000000 0.000001
vn -0.000002 1.000000 0.000002
vn -0.000002 1.000000 0.000002
vn 0.014989 0.999887 -0.001450
vn 0.007319 0.999973 -0.000185
vn 0.006882 0.999976 -0.000113
vn 0.014989 0.999887 -0.001450
vn 0.000485 0.999993 0.003785
vn 0.000485 0.999993 0.003785
vn 0.000485 0.999993 0.003785
vn 0.000485 0.999993 0.003785
vn 0.000485 0.999993 0.003785
vn 0.000485 0.999993 0.003785
vn 0.000485 0.999993 0.003785
vn 0.000485 0.999993 0.003785
vn 0.000485 0.999993 0.003785
vn 1.000000 -0.000000 0.000000
vn 1.000000 -0.000000 0.000000
vn 1.000000 -0.000000 0.000000
vn 1.000000 -0.000000 0.000000
vn -0.520729 0.000024 -0.853722
vn -0.520729 0.000024 -0.853722
vn -0.520729 0.000024 -0.853722
vn -0.520729 0.000024 -0.853722
vn 1.000000 -0.000000 0.000000
vn 1.000000 -0.000000 0.000000
vn 1.000000 -0.000000 0.000000
vn 1.000000 -0.000000 0.000000
vn 0.508785 0.000000 -0.860894
vn 0.508785 0.000000 -0.860894
vn 0.508785 0.000000 -0.860894
vn 0.508785 0.000000 -0.860894
vn -0.612719 0.790295 0.002969
vn -0.612719 0.790295 0.002969
vn -0.612719 0.790295 0.002969
vn -0.612719 0.790295 0.002969
vn 0.786899 0.617015 0.009081
vn 0.758955 0.651139 0.002494
vn 0.758955 0.651139 0.002494
vn 0.787559 0.616170 0.009241
vn -0.355823 0.731513 -0.581618
vn -0.355823 0.731513 -0.581618
vn -0.355823 0.731513 -0.581618
vn -0.355823 0.731513 -0.581618
vn 0.376287 0.666809 0.643253
vn 0.376287 0.666809 0.643253
vn 0.376287 0.666809 0.643253
vn 0.376287 0.666809 0.643253
vn 0.376273 0.666808 -0.643261
vn 0.376273 0.666808 -0.643261
vn 0.376273 0.666808 -0.643261
vn 0.376273 0.666808 -0.643261
vn 0.000241 0.999442 0.033402
vn -0.027556 0.998059 0.055848
vn -0.013341 0.999314 0.034547
vn -0.029077 0.999577 0.000008
vn -0.029077 0.999577 0.000006
vn 0.006734 0.999946 0.007901
vn -0.013341 0.999314 0.034547
vn 0.008064 0.999587 0.027573
vn 0.822393 0.568635 -0.018018
vn 0.822393 0.568635 -0.018018
vn 0.627394 0.696799 -0.347631
vn -0.350938 0.741393 -0.571996
vn -0.350938 0.741393 -0.571996
vn -0.350938 0.741393 -0.571996
vn -0.350938 0.741393 -0.571996
vn -0.013337 0.999314 -0.034540
vn -0.027549 0.998060 -0.055835
vn 0.000242 0.999442 -0.033393
vn -0.029077 0.999577 0.000006
vn -0.029077 0.999577 0.000008
vn 0.709937 0.704216 -0.008314
vn 0.786899 0.617015 0.009081
vn 0.787559 0.616170 0.009241
vn 0.822407 0.568614 0.018014
vn -0.350939 0.741389 0.572000
vn -0.350939 0.741389 0.572001
vn -0.350939 0.741389 0.572000
vn -0.350939 0.741389 0.572001
vn 0.715357 0.698759 0.000031
vn 0.715357 0.698759 0.000031
vn 0.715357 0.698759 0.000031
vn 0.822407 0.568614 0.018014
vn 0.627457 0.696763 0.347591
vn 0.822407 0.568614 0.018014
vn 0.822393 0.568635 -0.018018
vn 0.787546 0.616187 -0.009240
vn 0.786885 0.617032 -0.009080
vn 0.709899 0.704255 0.008317
vn 0.006734 0.999946 -0.007904
vn 0.008063 0.999588 -0.027566
vn -0.013337 0.999314 -0.034540
vn 0.007317 -0.999973 0.000179
vn 0.006734 -0.999946 0.007901
vn -0.013341 -0.999314 0.034547
vn 0.006214 -0.999981 -0.000004
vn 0.006881 -0.999976 0.000107
vn 0.000000 -1.000000 -0.000001
vn 0.000000 -1.000000 -0.000001
vn 0.000000 -1.000000 -0.000001
vn 0.000000 -1.000000 -0.000001
vn 0.000000 -1.000000 -0.000001
vn 0.000000 -1.000000 -0.000001
vn -0.000002 -1.000000 -0.000002
vn -0.000002 -1.000000 -0.000002
vn 0.014989 -0.999887 0.001450
vn 0.007317 -0.999973 0.000179
vn 0.006881 -0.999976 0.000107
vn 0.014989 -0.999887 0.001450
vn 0.000485 -0.999993 -0.003785
vn 0.000485 -0.999993 -0.003785
vn 0.000485 -0.999993 -0.003785
vn 0.000485 -0.999993 -0.003785
vn 0.000485 -0.999993 -0.003785
vn 0.000485 -0.999993 -0.003785
vn 0.000485 -0.999993 -0.003785
vn 0.000485 -0.999993 -0.003785
vn 0.000485 -0.999993 -0.003785
vn 1.000000 0.000049 0.000007
vn 1.000000 0.000049 0.000007
vn 1.000000 0.000049 0.000007
vn 1.000000 0.000049 0.000007
vn -0.520698 -0.000055 0.853741
vn -0.520698 -0.000055 0.853741
vn -0.520698 -0.000055 0.853741
vn -0.520698 -0.000055 0.853741
vn 1.000000 0.000001 0.000000
vn 1.000000 0.000001 0.000000
vn 1.000000 0.000001 0.000000
vn 1.000000 0.000001 0.000000
vn 0.508785 0.000000 0.860894
vn 0.508785 0.000000 0.860894
vn 0.508785 0.000000 0.860894
vn 0.508785 0.000000 0.860894
vn -0.612719 -0.790295 -0.002969
vn -0.612719 -0.790295 -0.002969
vn -0.612719 -0.790295 -0.002969
vn -0.612719 -0.790295 -0.002969
vn 0.786885 -0.617032 -0.009080
vn 0.758943 -0.651153 -0.002491
vn 0.758943 -0.651153 -0.002491
vn 0.787546 -0.616187 -0.009240
vn -0.355822 -0.731513 0.581617
vn -0.355822 -0.731513 0.581617
vn -0.355822 -0.731513 0.581617
vn -0.355822 -0.731514 0.581617
vn -1.000000 0.000606 0.000033
vn -1.000000 -0.000606 0.000033
vn -1.000000 -0.000606 0.000033
vn -1.000000 0.000606 0.000033
vn -0.499968 0.004453 0.866032
vn -0.499968 -0.004453 0.866032
vn -0.499968 -0.004453 0.866032
vn -0.499968 0.004453 0.866032
vn -1.000000 0.000450 0.000813
vn -1.000000 -0.000450 0.000813
vn -1.000000 -0.000450 0.000000
vn -1.000000 0.000450 -0.000000
vn 0.007319 -0.999973 -0.000185
vn 0.006882 -0.999976 -0.000113
vn 0.006215 -0.999981 -0.000003
vn -0.013337 -0.999314 -0.034540
vn 0.006734 -0.999946 -0.007904
vn 0.000000 -1.000000 0.000001
vn 0.000000 -1.000000 0.000001
vn 0.000000 -1.000000 0.000001
vn 0.000000 -1.000000 0.000001
vn 0.000000 -1.000000 0.000001
vn -0.000002 -1.000000 0.000002
vn -0.000002 -1.000000 0.000002
vn 0.000000 -1.000000 0.000001
vn 0.014989 -0.999887 -0.001450
vn 0.014989 -0.999887 -0.001450
vn 0.006882 -0.999976 -0.000113
vn 0.007319 -0.999973 -0.000185
vn 0.000485 -0.999993 0.003785
vn 0.000485 -0.999993 0.003785
vn 0.000485 -0.999993 0.003785
vn 0.000485 -0.999993 0.003785
vn 0.000485 -0.999993 0.003785
vn 0.000485 -0.999993 0.003785
vn 0.000485 -0.999993 0.003785
vn 0.000485 -0.999993 0.003785
vn 0.000485 -0.999993 0.003785
vn 1.000000 0.000000 0.000000
vn 1.000000 0.000000 0.000000
vn 1.000000 0.000000 0.000000
vn 1.000000 0.000000 0.000000
vn -0.520729 -0.000024 -0.853722
vn -0.520729 -0.000024 -0.853722
vn -0.520729 -0.000024 -0.853722
vn -0.520729 -0.000024 -0.853722
vn 1.000000 0.000000 0.000000
vn 1.000000 0.000000 0.000000
vn 1.000000 0.000000 0.000000
vn 1.000000 0.000000 0.000000
vn 0.508785 0.000000 -0.860894
vn 0.508785 0.000000 -0.860894
vn 0.508785 0.000000 -0.860894
vn 0.508785 0.000000 -0.860894
vn -0.612719 -0.790295 0.002969
vn -0.612719 -0.790295 0.002969
vn -0.612719 -0.790295 0.002969
vn -0.612719 -0.790295 0.002969
vn 0.786899 -0.617015 0.009081
vn 0.787559 -0.616170 0.009241
vn 0.758955 -0.651139 0.002494
vn 0.758955 -0.651139 0.002494
vn -0.355823 -0.731513 -0.581618
vn -0.355823 -0.731513 -0.581618
vn -0.355823 -0.731513 -0.581618
vn -0.355823 -0.731513 -0.581618
vn -1.000000 0.000606 -0.000033
vn -1.000000 -0.000606 -0.000033
vn -1.000000 -0.000606 -0.000033
vn -1.000000 0.000606 -0.000033
vn -0.499968 0.004453 -0.866032
vn -0.499968 -0.004453 -0.866032
vn -0.499968 -0.004453 -0.866032
vn -0.499968 0.004453 -0.866032
vn -1.000000 0.000450 -0.000000
vn -1.000000 -0.000450 0.000000
vn -1.000000 -0.000450 -0.000813
vn -1.000000 0.000450 -0.000813
vn 0.376287 -0.666809 0.643253
vn 0.376287 -0.666809 0.643253
vn 0.376287 -0.666809 0.643253
vn 0.376287 -0.666809 0.643253
vn 0.376273 -0.666808 -0.643261
vn 0.376273 -0.666808 -0.643261
vn 0.376273 -0.666808 -0.643261
vn 0.376273 -0.666808 -0.643261
vn 0.999928 0.000810 0.012003
vn 0.999928 -0.000810 0.012003
vn 0.999928 -0.000810 0.012003
vn 0.999928 0.000810 0.012003
vn -0.163830 -0.002476 -0.986486
vn -0.163830 0.002476 -0.986486
vn -0.458083 0.003036 -0.888904
vn -0.458083 -0.003036 -0.888904
vn -0.458085 -0.003035 0.888903
vn -0.458085 0.003035 0.888903
vn -0.163835 0.002475 0.986485
vn -0.163835 -0.002475 0.986485
vn 0.000241 -0.999442 0.033402
vn -0.029077 -0.999577 0.000006
vn -0.029077 -0.999577 0.000008
vn -0.013341 -0.999314 0.034547
vn -0.027556 -0.998059 0.055849
vn 0.006734 -0.999946 0.007901
vn 0.008064 -0.999587 0.027573
vn -0.013341 -0.999314 0.034547
vn 0.822393 -0.568635 -0.018018
vn 0.627395 -0.696798 -0.347632
vn 0.822393 -0.568635 -0.018018
vn -0.350938 -0.741393 -0.571996
vn -0.350938 -0.741393 -0.571996
vn -0.350938 -0.741393 -0.571996
vn -0.350938 -0.741393 -0.571996
vn 0.499479 -0.001131 -0.866325
vn 0.499479 0.001131 -0.866325
vn 0.499479 0.001131 -0.866325
vn 0.499479 -0.001131 -0.866325
vn -0.458083 -0.003036 -0.888904
vn -0.458083 0.003036 -0.888904
vn -0.477651 0.003065 -0.878544
vn -0.477651 -0.003065 -0.878544
vn -0.013337 -0.999314 -0.034540
vn -0.029077 -0.999577 0.000008
vn -0.029077 -0.999577 0.000006
vn 0.000242 -0.999442 -0.033393
vn -0.027549 -0.998060 -0.055835
vn 0.709937 -0.704216 -0.008314
vn 0.822407 -0.568614 0.018014
vn 0.787559 -0.616170 0.009241
vn 0.786899 -0.617015 0.009081
vn -0.350939 -0.741389 0.572000
vn -0.350939 -0.741389 0.572001
vn -0.350939 -0.741389 0.572000
vn -0.350939 -0.741389 0.572001
vn 0.499499 -0.001132 0.866314
vn 0.499499 0.001132 0.866314
vn 0.499499 0.001132 0.866314
vn 0.499499 -0.001132 0.866314
vn -0.477651 -0.003064 0.878545
vn -0.477651 0.003064 0.878545
vn -0.458085 0.003035 0.888903
vn -0.458085 -0.003035 0.888903
vn 0.715357 -0.698759 0.000031
vn 0.715357 -0.698759 0.000031
vn 0.715357 -0.698759 0.000031
vn 0.822407 -0.568614 0.018014
vn 0.822407 -0.568614 0.018014
vn 0.627455 -0.696767 0.347585
vn 0.822393 -0.568635 -0.018018
vn 0.709900 -0.704253 0.008317
vn 0.786885 -0.617032 -0.009080
vn 0.787546 -0.616187 -0.009240
vn 0.006734 -0.999946 -0.007904
vn -0.013337 -0.999314 -0.034540
vn 0.008063 -0.999588 -0.027566
s off
g Shilling2
usemtl Shilling:initialShadingGroup
f 6/1/1 4/2/2 3/3/3 2/4/4 5/5/5
f 11/6/6 14/7/7 13/8/8 12/9/9
f 13/8/10 16/10/11 15/11/12 12/9/13
f 8/12/14 7/13/15 4/2/16 6/1/17
f 17/14/18 19/15/19 18/16/20
f 19/15/21 20/17/22 18/16/23
f 20/17/24 21/18/25 18/16/26
f 3/133/27 13/134/28 14/125/29 2/126/30
f 2/136/31 14/135/32 11/137/33 1/138/34
f 7/139/35 15/140/36 16/141/37 4/142/38
f 4/142/39 16/141/40 13/134/41 3/133/42
f 10/20/43 20/17/44 19/15/45 9/21/46
f 5/5/47 18/16/48 21/18/49 6/1/50
f 6/1/51 21/18/52 20/17/53 10/20/54
f 26/22/55 25/23/56 22/24/57 23/25/58 24/26/59
f 11/6/60 12/9/61 29/27/62 30/28/63
f 29/27/64 12/9/65 15/11/66 31/33/67
f 8/12/68 26/22/69 24/26/70 7/13/71
f 32/34/72 33/35/73 34/36/74
f 34/36/75 33/35/76 35/47/77
f 35/47/78 33/35/79 36/48/80
f 23/143/81 22/144/82 30/145/83 29/146/84
f 22/144/85 1/138/86 11/137/87 30/145/88
f 7/139/89 24/147/90 31/148/91 15/140/92
f 24/147/93 23/143/94 29/146/95 31/148/96
f 28/49/97 27/50/98 34/36/99 35/47/100
f 25/23/101 26/22/102 36/48/103 33/35/104
f 26/22/105 28/49/106 35/47/107 36/48/108
f 37/55/109 42/56/110 43/57/111 39/58/112
f 38/59/113 40/60/114 41/61/115 37/55/116
f 41/61/117 44/62/118 2/4/119 1/19/120 37/55/121
f 5/5/122 2/4/123 44/62/124
f 41/61/125 17/14/126 44/62/127
f 9/21/128 19/15/129 17/14/130 41/61/131
f 22/24/132 45/63/133 42/56/134 37/55/135 1/19/136
f 45/63/137 25/23/138 33/35/139 32/34/140
f 27/50/141 42/56/142 32/34/143 34/36/144
f 37/55/145 39/58/146 38/59/147
f 42/56/148 45/63/149 32/34/150
f 17/14/151 18/16/152 5/5/153 44/62/154
f 25/23/155 45/63/156 22/24/157
f 51/64/158 50/65/159 47/66/160 48/67/161 49/68/162
f 56/69/163 57/70/164 58/71/165 59/72/166
f 58/71/167 57/70/168 60/73/169 61/74/170
f 53/75/171 51/64/172 49/68/173 52/76/174
f 62/77/175 63/78/176 64/79/177
f 64/79/178 63/78/179 65/80/180
f 65/80/181 63/78/182 66/81/183
f 48/149/184 47/150/185 59/151/186 58/152/187
f 47/128/188 46/153/189 56/154/190 59/127/191
f 52/155/192 49/156/193 61/157/194 60/158/195
f 49/156/196 48/149/197 58/152/198 61/157/199
f 55/83/200 54/84/201 64/79/202 65/80/203
f 50/65/204 51/64/205 66/81/206 63/78/207
f 51/64/208 55/83/209 65/80/210 66/81/211
f 9/29/212 54/30/213 55/31/214 10/32/215
f 10/32/216 55/31/217 51/37/218 6/38/219
f 6/38/220 51/37/221 53/39/222 8/40/223
f 71/85/224 69/86/225 68/87/226 67/88/227 70/89/228
f 56/69/229 75/90/230 74/91/231 57/70/232
f 74/91/233 76/92/234 60/73/235 57/70/236
f 53/75/237 52/76/238 69/86/239 71/85/240
f 77/93/241 79/94/242 78/95/243
f 79/94/244 80/96/245 78/95/246
f 80/96/247 81/97/248 78/95/249
f 68/159/250 74/160/251 75/132/252 67/131/253
f 67/131/254 75/132/255 56/154/256 46/153/257
f 52/155/258 60/158/259 76/130/260 69/129/261
f 69/129/262 76/130/263 74/160/264 68/159/265
f 73/98/266 80/96/267 79/94/268 72/99/269
f 70/89/270 78/95/271 81/97/272 71/85/273
f 71/85/274 81/97/275 80/96/276 73/98/277
f 28/41/278 73/42/279 72/43/280 27/44/281
f 26/45/282 71/46/283 73/42/284 28/41/285
f 8/40/286 53/39/287 71/46/288 26/45/289
f 82/100/290 84/101/291 88/102/292 87/103/293
f 83/104/294 82/100/295 86/105/296 85/106/297
f 39/51/298 84/52/299 83/53/300 38/54/301
f 40/124/302 85/123/303 86/122/304 41/121/305
f 42/116/306 87/115/307 88/114/308 43/113/309
f 86/105/310 82/100/311 46/82/312 47/66/313 89/107/314
f 50/65/315 89/107/316 47/66/317
f 86/105/318 89/107/319 62/77/320
f 54/84/321 86/105/322 62/77/323 64/79/324
f 38/120/325 83/119/326 85/123/327 40/124/328
f 41/121/329 86/122/330 54/118/331 9/117/332
f 67/88/333 46/82/334 82/100/335 87/103/336 90/108/337
f 90/108/338 77/93/339 78/95/340 70/89/341
f 72/99/342 79/94/343 77/93/344 87/103/345
f 43/113/346 88/114/347 84/110/348 39/109/349
f 27/112/350 72/111/351 87/115/352 42/116/353
f 82/100/354 83/104/355 84/101/356
f 87/103/357 77/93/358 90/108/359
f 62/77/360 89/107/361 50/65/362 63/78/363
f 70/89/364 67/88/365 90/108/366
