# This file uses centimeters as units for non-parametric coordinates.

mtllib BallistaStand.mtl
g skinCluster7Set tweakSet9
v -104.811066 -0.000073 0.000020
v -148.461502 -0.000073 0.000020
v -136.014542 114.637413 -14.804617
v -117.258102 114.637413 -14.804617
v -140.064728 114.637230 0.000022
v -136.014542 114.637413 -11.697360
v -117.258102 114.637413 -11.697360
v -113.207878 114.637230 0.000022
v -136.014542 114.637413 11.697412
v -117.258102 114.637413 14.804668
v -136.014542 114.637413 14.804668
v -117.258102 114.637413 11.697412
v -117.258110 11.463813 -11.697360
v -117.258110 11.463813 -14.804617
v -136.014542 11.463813 -14.804617
v -136.014542 11.463813 -11.697360
v -140.064728 11.463648 0.000022
v -136.014542 11.463813 11.697412
v -136.014542 11.463813 14.804668
v -117.258110 11.463813 14.804668
v -117.258110 11.463813 11.697412
v -113.207901 11.463648 0.000022
v -102.133156 11.463813 -24.061996
v -102.133156 0.000092 -24.061996
v -151.139496 11.463813 -24.061996
v -151.139496 0.000092 -24.061996
v -148.461502 11.463648 0.000020
v -151.139496 11.463813 24.062044
v -151.139496 0.000092 24.062044
v -102.133156 11.463813 24.062044
v -102.133156 0.000092 24.062044
v -104.811096 11.463648 0.000020
v -205.760315 11.463813 -24.061996
v -239.931656 11.463648 0.000020
v -205.760315 0.000092 -24.061996
v -239.931656 -0.000073 0.000020
v -205.760315 11.463813 24.062044
v -205.760315 0.000092 24.062044
v -47.512550 11.463813 24.062044
v -13.340868 11.463648 0.000020
v -47.512550 0.000092 24.062044
v -13.340919 -0.000073 0.000020
v -47.512550 11.463813 -24.061996
v -47.512550 0.000092 -24.061996
v -102.133156 11.463813 -81.220573
v -151.139496 11.463813 -81.220573
v -102.133156 0.000092 -81.220573
v -151.139496 0.000092 -81.220573
v -151.139496 11.463813 81.220627
v -102.133156 11.463813 81.220627
v -151.139496 0.000092 81.220627
v -102.133156 0.000092 81.220627
v -126.636322 11.463813 -24.061996
v -126.636322 11.463813 24.062044
v -126.636322 11.463813 106.291527
v -126.636322 0.000092 106.291527
v -126.636322 0.000092 24.062044
v -126.636322 11.463813 -106.291473
v -126.636322 0.000092 -106.291473
v -126.636322 0.000092 -24.061996
vt 0.326331 0.394879
vt 0.280624 0.394855
vt 0.280834 0.013899
vt 0.326541 0.013923
vt 0.269361 0.013892
vt 0.269151 0.394849
vt 0.372038 0.394905
vt 0.372248 0.013949
vt 0.383511 0.394912
vt 0.383721 0.013955
vt 0.188422 0.394804
vt 0.142715 0.394778
vt 0.142925 0.013822
vt 0.188632 0.013848
vt 0.097008 0.394753
vt 0.097218 0.013797
vt 0.199895 0.394810
vt 0.200105 0.013854
vt 0.085745 0.013791
vt 0.085535 0.394747
vt 0.258786 0.454911
vt 0.173034 0.538563
vt 0.139139 0.538649
vt 0.240891 0.417825
vt 0.564467 0.125746
vt 0.479415 0.241606
vt 0.442176 0.225968
vt 0.560483 0.090739
vt 0.648876 0.240809
vt 0.687066 0.223529
vt 0.869813 0.622105
vt 0.955571 0.538460
vt 0.989466 0.538377
vt 0.887702 0.659193
vt 0.564188 0.951242
vt 0.649213 0.835361
vt 0.686455 0.850991
vt 0.568179 0.986247
vt 0.479763 0.836191
vt 0.441575 0.853477
vt 0.506927 0.575731
vt 0.518899 0.575471
vt 0.468171 0.636421
vt 0.506900 0.501531
vt 0.473166 0.538656
vt 0.518848 0.501745
vt 0.468118 0.441038
vt 0.564257 0.486313
vt 0.564230 0.454602
vt 0.609691 0.501472
vt 0.660440 0.440592
vt 0.621696 0.501336
vt 0.621680 0.575426
vt 0.655444 0.538348
vt 0.609723 0.575196
vt 0.660470 0.635936
vt 0.564328 0.590637
vt 0.564364 0.622364
vt 0.439620 0.410835
vt 0.690284 0.411516
vt 0.688967 0.666139
vt 0.438329 0.665499
vt 0.241287 0.660101
vt 0.258830 0.621999
vt 0.887326 0.416918
vt 0.869782 0.455019
vt 0.952269 0.143949
vt 0.988531 0.179390
vt 0.869594 0.064946
vt 0.834791 0.015520
vt 0.799988 0.064946
vt 0.016489 0.013753
vt 0.016279 0.394709
vt 0.952269 0.214832
vt 0.799988 0.179390
vt 0.834791 0.210958
vt 0.799988 0.214832
vt 0.834791 0.147822
vt 0.834791 0.343261
vt 0.799988 0.293835
vt 0.681051 0.179390
vt 0.717313 0.214832
vt 0.869594 0.179390
vt 0.799988 0.143949
vt 0.869594 0.214832
vt 0.869594 0.293835
vt 0.717313 0.143949
vt 0.869594 0.143949
vn 0.000000 0.000000 -1.000000
vn 0.000000 0.000000 -1.000000
vn 0.000000 0.000000 -1.000000
vn 0.000000 0.000000 -1.000000
vn -0.944959 0.000000 -0.327189
vn -0.944959 0.000000 -0.327189
vn -0.944959 0.000000 -0.327189
vn -0.944959 0.000000 -0.327189
vn 0.944958 -0.000000 -0.327192
vn 0.944958 -0.000000 -0.327192
vn 0.944958 -0.000000 -0.327192
vn 0.944958 -0.000000 -0.327192
vn -0.944959 0.000000 0.327189
vn -0.944959 0.000000 0.327189
vn -0.944959 0.000000 0.327189
vn -0.944959 0.000000 0.327189
vn 0.000000 0.000000 1.000000
vn 0.000000 0.000000 1.000000
vn 0.000000 0.000000 1.000000
vn 0.000000 0.000000 1.000000
vn 0.944958 -0.000000 0.327191
vn 0.944958 -0.000000 0.327191
vn 0.944958 -0.000000 0.327191
vn 0.944958 -0.000000 0.327191
vn 1.000000 -0.000000 0.000000
vn 1.000000 -0.000000 0.000000
vn 1.000000 -0.000000 0.000000
vn 1.000000 -0.000000 0.000000
vn -1.000000 0.000000 0.000000
vn -1.000000 0.000000 0.000000
vn -1.000000 0.000000 0.000000
vn -1.000000 0.000000 0.000000
vn -1.000000 0.000000 0.000000
vn -1.000000 0.000000 0.000000
vn -1.000000 0.000000 0.000000
vn -1.000000 0.000000 0.000000
vn 1.000000 -0.000000 0.000000
vn 1.000000 -0.000000 0.000000
vn 1.000000 -0.000000 0.000000
vn 1.000000 -0.000000 0.000000
vn -0.715158 0.000000 -0.698963
vn -0.715158 0.000000 -0.698963
vn -0.715158 0.000000 -0.698963
vn -0.715158 0.000000 -0.698963
vn -0.575742 0.000000 -0.817632
vn -0.575742 0.000000 -0.817632
vn -0.575742 0.000000 -0.817632
vn -0.575742 0.000000 -0.817632
vn -0.575742 0.000000 0.817632
vn -0.575742 0.000000 0.817632
vn -0.575742 0.000000 0.817632
vn -0.575742 0.000000 0.817632
vn 0.715158 0.000000 0.698963
vn 0.715158 0.000000 0.698963
vn 0.715158 0.000000 0.698963
vn 0.715158 0.000000 0.698963
vn 0.575738 -0.000001 0.817634
vn 0.575738 -0.000001 0.817634
vn 0.575738 -0.000001 0.817634
vn 0.575738 -0.000001 0.817634
vn 0.575738 -0.000001 -0.817634
vn 0.575738 -0.000001 -0.817634
vn 0.575738 -0.000001 -0.817634
vn 0.575738 -0.000001 -0.817634
vn 0.000000 1.000000 0.000000
vn 0.000000 1.000000 0.000000
vn 0.000000 1.000000 0.000000
vn 0.000000 1.000000 0.000000
vn 0.000000 1.000000 0.000000
vn 0.000000 1.000000 0.000000
vn 0.000000 -1.000000 -0.000007
vn 0.000000 -1.000000 -0.000007
vn 0.000000 -1.000000 -0.000007
vn 0.000000 1.000000 0.000000
vn 0.000000 1.000000 0.000000
vn 0.000000 1.000000 0.000000
vn -0.000005 1.000000 0.000009
vn -0.000005 1.000000 0.000009
vn -0.000005 1.000000 0.000009
vn -0.000005 1.000000 0.000009
vn -0.000005 1.000000 -0.000009
vn -0.000005 1.000000 -0.000009
vn -0.000005 1.000000 -0.000009
vn -0.000005 1.000000 -0.000009
vn 0.000000 1.000000 0.000000
vn 0.000000 1.000000 0.000000
vn 0.000000 1.000000 0.000000
vn 0.000000 1.000000 0.000000
vn 0.000000 1.000000 0.000000
vn 0.000000 1.000000 0.000000
vn 0.000000 -1.000000 0.000007
vn 0.000000 -1.000000 0.000007
vn 0.000000 -1.000000 0.000007
vn 0.000000 1.000000 0.000000
vn 0.000000 1.000000 0.000000
vn 0.000000 1.000000 0.000000
vn 0.000005 1.000000 -0.000009
vn 0.000005 1.000000 -0.000009
vn 0.000005 1.000000 -0.000009
vn 0.000005 1.000000 -0.000009
vn 0.000005 1.000000 0.000009
vn 0.000005 1.000000 0.000009
vn 0.000005 1.000000 0.000009
vn 0.000005 1.000000 0.000009
vn 0.000000 1.000000 0.000007
vn 0.000000 1.000000 0.000007
vn 0.000000 1.000000 0.000007
vn 0.000000 1.000000 0.000007
vn 0.000000 0.000000 -1.000000
vn 0.000000 0.000000 -1.000000
vn 0.000000 0.000000 -1.000000
vn 0.000000 0.000000 -1.000000
vn 0.000000 -1.000000 -0.000007
vn 0.000000 -1.000000 -0.000007
vn 0.000000 -1.000000 -0.000007
vn 0.000000 -1.000000 -0.000007
vn 0.000000 1.000000 -0.000007
vn 0.000000 1.000000 -0.000007
vn 0.000000 1.000000 -0.000007
vn 0.000000 1.000000 -0.000007
vn 0.000000 -1.000000 0.000007
vn 0.000000 -1.000000 0.000007
vn 0.000000 -1.000000 0.000007
vn 0.000000 -1.000000 0.000007
vn 0.000000 0.000000 1.000000
vn 0.000000 0.000000 1.000000
vn 0.000000 0.000000 1.000000
vn 0.000000 0.000000 1.000000
vn 0.000000 1.000000 -0.000007
vn 0.000000 1.000000 -0.000007
vn 0.000000 1.000000 -0.000007
vn 0.000000 1.000000 -0.000007
vn 0.000000 0.000000 1.000000
vn 0.000000 0.000000 1.000000
vn 0.000000 0.000000 1.000000
vn 0.000000 0.000000 1.000000
vn 0.000000 -1.000000 0.000007
vn 0.000000 -1.000000 0.000007
vn 0.000000 -1.000000 0.000007
vn 0.000000 -1.000000 0.000007
vn 0.000000 1.000000 0.000007
vn 0.000000 1.000000 0.000007
vn 0.000000 1.000000 0.000007
vn 0.000000 1.000000 0.000007
vn 0.000000 -1.000000 -0.000007
vn 0.000000 -1.000000 -0.000007
vn 0.000000 -1.000000 -0.000007
vn 0.000000 -1.000000 -0.000007
vn 0.000000 0.000000 -1.000000
vn 0.000000 0.000000 -1.000000
vn 0.000000 0.000000 -1.000000
vn 0.000000 0.000000 -1.000000
vn 0.000000 1.000000 0.000000
vn 0.000000 1.000000 0.000000
vn 0.000000 1.000000 0.000000
vn 0.000000 1.000000 0.000000
vn 1.000000 0.000000 0.000000
vn 1.000000 0.000000 0.000000
vn 1.000000 0.000000 0.000000
vn 1.000000 0.000000 0.000000
vn 0.000000 -1.000000 0.000000
vn 0.000000 -1.000000 0.000000
vn 0.000000 -1.000000 0.000000
vn 0.000000 -1.000000 0.000000
vn -1.000000 0.000000 0.000000
vn -1.000000 0.000000 0.000000
vn -1.000000 0.000000 0.000000
vn -1.000000 0.000000 0.000000
vn 0.000000 1.000000 0.000000
vn 0.000000 1.000000 0.000000
vn 0.000000 1.000000 0.000000
vn 0.000000 1.000000 0.000000
vn -1.000000 0.000000 0.000000
vn -1.000000 0.000000 0.000000
vn -1.000000 0.000000 0.000000
vn -1.000000 0.000000 0.000000
vn 0.000000 -1.000000 0.000000
vn 0.000000 -1.000000 0.000000
vn 0.000000 -1.000000 0.000000
vn 0.000000 -1.000000 0.000000
vn 1.000000 0.000000 0.000000
vn 1.000000 0.000000 0.000000
vn 1.000000 0.000000 0.000000
vn 1.000000 0.000000 0.000000
vn 0.000000 1.000000 0.000000
vn 0.000000 1.000000 0.000000
vn 0.000000 1.000000 0.000000
vn 0.000000 1.000000 0.000000
vn 0.000000 1.000000 0.000000
vn 0.000000 1.000000 0.000000
vn 0.000000 1.000000 0.000000
vn 0.000000 1.000000 0.000000
vn 0.000000 1.000000 0.000000
vn 0.000000 1.000000 0.000000
vn 0.000000 1.000000 0.000000
vn 0.000000 1.000000 0.000000
vn 0.000000 1.000000 0.000000
vn 0.000000 1.000000 0.000000
vn 0.000000 1.000000 0.000000
vn 0.000000 1.000000 0.000000
vn -0.715158 0.000000 0.698963
vn -0.715158 0.000000 0.698963
vn -0.715158 0.000000 0.698963
vn -0.715158 0.000000 0.698963
vn 0.000000 -1.000000 0.000000
vn 0.000000 -1.000000 0.000000
vn 0.000000 -1.000000 0.000000
vn 0.000000 -1.000000 0.000000
vn 0.000000 -1.000000 0.000007
vn 0.000000 -1.000000 0.000007
vn 0.000000 -1.000000 0.000007
vn 0.000000 -1.000000 0.000007
vn 0.000000 -1.000000 0.000007
vn 0.000000 -1.000000 0.000007
vn 0.000000 1.000000 0.000000
vn 0.000000 1.000000 0.000000
vn 0.000000 1.000000 0.000000
vn 0.000000 1.000000 0.000000
vn 0.715158 0.000000 -0.698963
vn 0.715158 0.000000 -0.698963
vn 0.715158 0.000000 -0.698963
vn 0.715158 0.000000 -0.698963
vn 0.000000 -1.000000 0.000000
vn 0.000000 -1.000000 0.000000
vn 0.000000 -1.000000 0.000000
vn 0.000000 -1.000000 0.000000
vn 0.000000 -1.000000 -0.000007
vn 0.000000 -1.000000 -0.000007
vn 0.000000 -1.000000 -0.000007
vn 0.000000 -1.000000 -0.000007
vn 0.000000 -1.000000 -0.000007
vn 0.000000 -1.000000 -0.000007
s off
g Stand BallistaLower
usemtl PallisadeWallSG1
f 3/6/1 4/17/2 14/18/3 15/5/4
usemtl PallisadeWallSG
f 5/1/5 6/2/6 16/3/7 17/4/8
f 7/11/9 8/12/10 22/13/11 13/14/12
f 9/7/13 5/1/14 17/4/15 18/8/16
usemtl PallisadeWallSG1
f 10/20/17 11/73/18 19/72/19 20/19/20
usemtl PallisadeWallSG
f 8/12/21 12/15/22 21/16/23 22/13/24
usemtl PallisadeWallSG1
f 4/17/25 7/11/26 13/14/27 14/18/28
f 15/5/29 16/3/30 6/2/31 3/6/32
f 11/9/33 9/7/34 18/8/35 19/10/36
f 20/19/37 21/16/38 12/15/39 10/20/40
f 46/21/41 58/22/42 59/23/43 48/24/44
f 34/25/45 33/26/46 35/27/47 36/28/48
f 37/29/49 34/25/50 36/28/51 38/30/52
f 50/31/53 55/32/54 56/33/55 52/34/56
f 40/35/57 39/36/58 41/37/59 42/38/60
f 43/39/61 40/35/62 42/38/63 44/40/64
f 14/41/65 13/42/66 23/43/67
f 15/44/68 14/41/69 53/45/70
usemtl initialShadingGroup
f 60/75/71 2/76/72 26/77/73
usemtl PallisadeWallSG1
f 16/46/74 15/44/75 25/47/76
f 17/48/77 16/46/78 25/47/79 27/49/80
f 18/50/81 17/48/82 27/49/83 28/51/84
f 19/52/85 18/50/86 28/51/87
f 20/53/88 19/52/89 54/54/90
usemtl initialShadingGroup
f 57/83/91 1/78/92 31/88/93
usemtl PallisadeWallSG1
f 21/55/94 20/53/95 30/56/96
f 22/57/97 21/55/98 30/56/99 32/58/100
f 13/42/101 22/57/102 32/58/103 23/43/104
f 27/49/105 25/47/106 33/26/107 34/25/108
f 25/47/109 26/59/110 35/27/111 33/26/112
usemtl initialShadingGroup
f 26/77/113 2/76/114 36/79/115 35/80/116
usemtl PallisadeWallSG1
f 28/51/117 27/49/118 34/25/119 37/29/120
usemtl initialShadingGroup
f 2/76/121 29/85/122 38/86/123 36/79/124
usemtl PallisadeWallSG1
f 29/60/125 28/51/126 37/29/127 38/30/128
f 32/58/129 30/56/130 39/36/131 40/35/132
f 30/56/133 31/61/134 41/37/135 39/36/136
usemtl initialShadingGroup
f 31/88/137 1/78/138 42/70/139 41/69/140
usemtl PallisadeWallSG1
f 23/43/141 32/58/142 40/35/143 43/39/144
usemtl initialShadingGroup
f 1/78/145 24/84/146 44/71/147 42/70/148
usemtl PallisadeWallSG1
f 24/62/149 23/43/150 43/39/151 44/40/152
f 25/47/153 53/45/154 58/22/155 46/21/156
f 23/43/157 24/62/158 47/63/159 45/64/160
usemtl initialShadingGroup
f 59/81/161 60/75/162 26/77/163 48/82/164
usemtl PallisadeWallSG1
f 26/59/165 25/47/166 46/21/167 48/24/168
f 30/56/169 54/54/170 55/32/171 50/31/172
f 28/51/173 29/60/174 51/65/175 49/66/176
usemtl initialShadingGroup
f 56/68/177 57/83/178 31/88/179 52/67/180
usemtl PallisadeWallSG1
f 31/61/181 30/56/182 50/31/183 52/34/184
f 53/45/185 14/41/186 23/43/187
f 15/44/188 53/45/189 25/47/190
f 54/54/191 19/52/192 28/51/193
f 20/53/194 54/54/195 30/56/196
f 55/32/197 54/54/198 28/51/199 49/66/200
f 56/33/201 55/32/202 49/66/203 51/65/204
usemtl initialShadingGroup
f 29/85/205 57/83/206 56/68/207 51/74/208
f 2/76/209 57/83/210 29/85/211
f 2/76/212 1/78/213 57/83/214
usemtl PallisadeWallSG1
f 58/22/215 53/45/216 23/43/217 45/64/218
f 59/23/219 58/22/220 45/64/221 47/63/222
usemtl initialShadingGroup
f 24/84/223 60/75/224 59/81/225 47/87/226
f 1/78/227 60/75/228 24/84/229
f 1/78/230 2/76/231 60/75/232
