# This file uses centimeters as units for non-parametric coordinates.

mtllib flamethrowerturretstand.mtl
g skinCluster3Set tweakSet3
v 7.551874 -12.512252 -1.876278
v 7.551874 -12.512252 -4.123728
v 5.369003 -12.512254 -1.876276
v 5.369003 -12.512255 -4.123729
v 7.551902 -14.570421 -1.876272
v 7.551902 -14.570421 -4.123722
v 5.369031 -14.570421 -1.876270
v 5.369031 -14.570423 -4.123724
v 16.884342 -15.977698 -1.789672
v 16.884342 -15.977698 -4.210334
v 16.138478 -18.035866 -1.876272
v 16.138478 -18.035866 -4.123722
v 7.635996 -15.977790 7.458684
v 5.284890 -15.977793 7.458686
v 5.369035 -18.035958 6.710311
v 7.551906 -18.035958 6.710309
v -3.963467 -15.977932 -4.210336
v -3.963467 -15.977930 -1.789670
v -3.217545 -18.036099 -4.123724
v -3.217545 -18.036096 -1.876270
v 7.635996 -15.977839 -13.458689
v 5.284890 -15.977842 -13.458691
v 7.551906 -18.036007 -12.710303
v 5.369035 -18.036009 -12.710306
v 24.999657 -28.705237 -2.068623
v 24.999657 -28.705237 -3.931382
v 22.089258 -28.705264 -2.135265
v 22.089258 -28.705264 -3.864731
v 7.365068 -28.705462 15.565965
v 5.555835 -28.705467 15.565972
v 5.620588 -28.705469 12.653657
v 7.300360 -28.705467 12.653654
v -12.078747 -28.705807 -3.931383
v -12.078757 -28.705812 -2.068622
v -9.168346 -28.705782 -3.864733
v -9.168351 -28.705784 -2.135263
v 7.365072 -28.705577 -21.565974
v 5.555840 -28.705582 -21.565977
v 7.300363 -28.705572 -18.653658
v 5.620591 -28.705577 -18.653656
v 23.673212 -32.973026 -2.135269
v 23.673212 -32.973026 -3.864736
v 22.089403 -32.973054 -2.135265
v 22.089403 -32.973054 -3.864731
v 7.300356 -32.973252 14.237480
v 5.620584 -32.973256 14.237485
v 5.620607 -32.973259 12.653674
v 7.300379 -32.973256 12.653672
v -10.752031 -32.973597 -3.864753
v -10.752035 -32.973601 -2.135284
v -9.168218 -32.973571 -3.864749
v -9.168222 -32.973574 -2.135279
v 7.300369 -32.973367 -20.237446
v 5.620598 -32.973371 -20.237448
v 7.300390 -32.973362 -18.653635
v 5.620618 -32.973367 -18.653633
v 16.204489 -16.028495 2.137430
v 16.204517 -18.086664 2.137436
v 22.155297 -28.756059 1.878443
v 23.739104 -28.756032 1.878439
v 16.204459 -16.028514 -8.137436
v 16.204487 -18.086682 -8.137430
v 23.739075 -28.756050 -7.878443
v 22.155267 -28.756078 -7.878439
v 1.355252 -16.027205 6.774380
v 1.355280 -18.085371 6.774386
v 1.606833 -28.754880 12.717732
v 1.606810 -28.754877 14.301542
v 11.565634 -16.027116 6.774532
v 11.565662 -18.085284 6.774538
v 11.314093 -28.754790 14.301690
v 11.314116 -28.754795 12.717884
v -3.283580 -16.028745 -8.137438
v -3.283552 -18.086912 -8.137432
v -9.234353 -28.756595 -7.878442
v -10.818166 -28.756620 -7.878446
v -3.283607 -16.028730 2.137432
v -3.283580 -18.086896 2.137437
v -10.818198 -28.756611 1.878440
v -9.234385 -28.756583 1.878445
v 11.565634 -16.027166 -12.774530
v 11.565662 -18.085335 -12.774526
v 11.314118 -28.754900 -18.717881
v 11.314098 -28.754905 -20.301691
v 1.355252 -16.027253 -12.774401
v 1.355280 -18.085420 -12.774397
v 1.606814 -28.754992 -20.301560
v 1.606835 -28.754988 -18.717745
v 24.164470 -34.230816 -1.598856
v 24.164470 -34.230816 -4.401151
v 21.598189 -34.230862 -1.598849
v 21.598189 -34.230862 -4.401143
v 7.821354 -34.231051 14.728717
v 5.099581 -34.231056 14.728727
v 5.099617 -34.231062 12.162442
v 7.821386 -34.231056 12.162438
v -11.243250 -34.231405 -4.401172
v -11.243254 -34.231410 -1.598873
v -8.676953 -34.231361 -4.401165
v -8.676967 -34.231368 -1.598865
v 7.821363 -34.231166 -20.728679
v 5.099592 -34.231170 -20.728681
v 7.821398 -34.231161 -18.162396
v 5.099629 -34.231166 -18.162391
vt 1.000000 1.000000
vt 1.000000 1.000000
vt 1.000000 0.890336
vt 1.000000 0.984888
vt 1.000000 1.000000
vt 1.000000 1.000000
vt 1.000000 0.890336
vt 1.000000 0.984888
vt 0.000000 0.000000
vt 1.000000 0.000000
vt 1.000000 1.000000
vt 0.000000 1.000000
vt 1.000000 1.000000
vt 1.000000 1.000000
vt 1.000000 1.000000
vt 1.000000 1.000000
vt 1.000000 1.000000
vt 1.000000 0.890336
vt 1.000000 0.890336
vt 1.000000 1.000000
vt 1.000000 0.890336
vt 1.000000 0.984888
vt 1.000000 0.984888
vt 1.000000 0.890336
vt 1.000000 0.984888
vt 1.000000 1.000000
vt 1.000000 1.000000
vt 1.000000 0.984888
vt 1.000000 1.000000
vt 1.000000 1.000000
vt 1.000000 1.000000
vt 1.000000 1.000000
vt 1.000000 0.890336
vt 1.000000 0.890336
vt 1.000000 0.984888
vt 1.000000 0.984888
vt 1.000000 1.000000
vt 1.000000 1.000000
vt 1.000000 1.000000
vt 1.000000 1.000000
vt 1.000000 0.890336
vt 1.000000 0.890336
vt 1.000000 0.984888
vt 1.000000 0.984888
vt 1.000000 1.000000
vt 1.000000 1.000000
vt 1.000000 1.000000
vt 1.000000 1.000000
vt 1.000000 1.000000
vt 1.000000 1.000000
vt 1.000000 1.000000
vt 1.000000 1.000000
vt 1.000000 0.890336
vt 1.000000 0.890336
vt 1.000000 0.890336
vt 1.000000 0.890336
vt 1.000000 0.984888
vt 1.000000 0.984888
vt 1.000000 0.984888
vt 1.000000 0.984888
vt 1.000000 1.000000
vt 1.000000 1.000000
vt 1.000000 1.000000
vt 1.000000 1.000000
vt 1.000000 0.890336
vt 1.000000 0.890336
vt 1.000000 0.984888
vt 1.000000 0.984888
vn 0.000001 -1.000000 0.000001
vn 0.000001 -1.000000 0.000001
vn 0.000001 -1.000000 0.000001
vn 0.000001 -1.000000 0.000001
vn 0.000017 -1.000000 0.000000
vn 0.000017 -1.000000 0.000000
vn 0.000017 -1.000000 0.000000
vn 0.000017 -1.000000 0.000000
vn 0.000002 -1.000000 0.000002
vn 0.000002 -1.000000 0.000002
vn 0.000002 -1.000000 0.000002
vn 0.000002 -1.000000 0.000002
vn 0.000016 -1.000000 -0.000002
vn 0.000016 -1.000000 -0.000002
vn 0.000016 -1.000000 -0.000002
vn 0.000016 -1.000000 -0.000002
vn 0.000002 -1.000000 0.000002
vn 0.000002 -1.000000 0.000002
vn 0.000002 -1.000000 0.000002
vn 0.000002 -1.000000 0.000002
vn -0.000001 1.000000 -0.000000
vn -0.000001 1.000000 -0.000000
vn -0.000001 1.000000 -0.000000
vn -0.000001 1.000000 -0.000000
vn 0.348107 0.937455 0.000000
vn 0.348107 0.937455 0.000000
vn 0.348107 0.937455 0.000000
vn 0.348107 0.937455 0.000000
vn -0.012118 -0.018836 0.999749
vn -0.012118 -0.018836 0.999749
vn -0.012118 -0.018836 0.999749
vn -0.012118 -0.018836 0.999749
vn -0.374258 -0.927325 -0.000000
vn -0.374258 -0.927325 -0.000000
vn -0.374258 -0.927325 -0.000000
vn -0.374258 -0.927325 -0.000000
vn -0.012120 -0.018841 -0.999749
vn -0.012120 -0.018841 -0.999749
vn -0.012120 -0.018841 -0.999749
vn -0.012120 -0.018841 -0.999749
vn -0.000001 0.937482 0.348034
vn -0.000001 0.937482 0.348034
vn -0.000001 0.937482 0.348034
vn -0.000001 0.937482 0.348034
vn -0.999763 -0.018304 -0.011770
vn -0.999763 -0.018304 -0.011770
vn -0.999763 -0.018304 -0.011770
vn -0.999763 -0.018304 -0.011770
vn -0.000001 -0.927321 -0.374266
vn -0.000001 -0.927321 -0.374266
vn -0.000001 -0.927321 -0.374266
vn -0.000001 -0.927321 -0.374266
vn 0.999764 -0.018278 -0.011763
vn 0.999764 -0.018278 -0.011763
vn 0.999764 -0.018278 -0.011763
vn 0.999764 -0.018278 -0.011763
vn -0.348127 0.937447 -0.000000
vn -0.348127 0.937447 -0.000000
vn -0.348127 0.937447 -0.000000
vn -0.348127 0.937447 -0.000000
vn 0.012120 -0.018841 -0.999749
vn 0.012120 -0.018841 -0.999749
vn 0.012120 -0.018841 -0.999749
vn 0.012120 -0.018841 -0.999749
vn 0.374279 -0.927316 0.000001
vn 0.374279 -0.927316 0.000001
vn 0.374279 -0.927316 0.000001
vn 0.374279 -0.927316 0.000001
vn 0.012118 -0.018836 0.999749
vn 0.012118 -0.018836 0.999749
vn 0.012118 -0.018836 0.999749
vn 0.012118 -0.018836 0.999749
vn -0.000001 0.937480 -0.348038
vn -0.000001 0.937480 -0.348038
vn -0.000001 0.937480 -0.348038
vn -0.000001 0.937480 -0.348038
vn 0.999764 -0.018278 0.011762
vn 0.999764 -0.018278 0.011762
vn 0.999764 -0.018278 0.011762
vn 0.999764 -0.018278 0.011762
vn 0.000001 -0.927319 0.374271
vn 0.000001 -0.927319 0.374271
vn 0.000001 -0.927319 0.374271
vn 0.000001 -0.927319 0.374271
vn -0.999763 -0.018304 0.011771
vn -0.999763 -0.018304 0.011771
vn -0.999763 -0.018304 0.011771
vn -0.999763 -0.018304 0.011771
vn 0.843182 0.537628 0.000000
vn 0.843182 0.537628 0.000000
vn 0.843182 0.537628 0.000000
vn 0.843182 0.537628 0.000000
vn 0.016449 -0.012653 0.999785
vn 0.016449 -0.012653 0.999785
vn 0.016449 -0.012653 0.999785
vn 0.016449 -0.012653 0.999785
vn -0.873345 -0.487102 -0.000000
vn -0.873345 -0.487102 -0.000000
vn -0.873345 -0.487102 -0.000000
vn -0.873345 -0.487102 -0.000000
vn 0.016442 -0.012657 -0.999785
vn 0.016442 -0.012657 -0.999785
vn 0.016442 -0.012657 -0.999785
vn 0.016442 -0.012657 -0.999785
vn 0.000001 0.537246 0.843426
vn 0.000001 0.537246 0.843426
vn 0.000001 0.537246 0.843426
vn 0.000001 0.537246 0.843426
vn -0.999797 -0.012308 0.015958
vn -0.999797 -0.012308 0.015958
vn -0.999797 -0.012308 0.015958
vn -0.999797 -0.012308 0.015958
vn -0.000000 -0.486634 -0.873606
vn -0.000000 -0.486634 -0.873606
vn -0.000000 -0.486634 -0.873606
vn -0.000000 -0.486634 -0.873606
vn 0.999797 -0.012287 0.015999
vn 0.999797 -0.012287 0.015999
vn 0.999797 -0.012287 0.015999
vn 0.999796 -0.012287 0.015999
vn -0.843189 0.537617 -0.000000
vn -0.843189 0.537617 -0.000000
vn -0.843189 0.537617 -0.000000
vn -0.843189 0.537617 -0.000000
vn -0.016442 -0.012657 -0.999785
vn -0.016442 -0.012657 -0.999785
vn -0.016442 -0.012657 -0.999785
vn -0.016442 -0.012657 -0.999785
vn 0.873350 -0.487093 0.000000
vn 0.873350 -0.487093 0.000000
vn 0.873350 -0.487093 0.000000
vn 0.873350 -0.487093 0.000000
vn -0.016449 -0.012653 0.999785
vn -0.016449 -0.012653 0.999785
vn -0.016449 -0.012653 0.999785
vn -0.016449 -0.012653 0.999785
vn 0.000000 0.537244 -0.843427
vn 0.000000 0.537244 -0.843427
vn 0.000000 0.537244 -0.843427
vn 0.000000 0.537244 -0.843427
vn 0.999797 -0.012287 -0.015997
vn 0.999797 -0.012287 -0.015997
vn 0.999797 -0.012287 -0.015997
vn 0.999797 -0.012287 -0.015997
vn 0.000001 -0.486632 0.873607
vn 0.000001 -0.486632 0.873607
vn 0.000001 -0.486632 0.873607
vn 0.000001 -0.486632 0.873607
vn -0.999797 -0.012308 -0.015965
vn -0.999797 -0.012308 -0.015965
vn -0.999797 -0.012308 -0.015965
vn -0.999797 -0.012308 -0.015965
vn 0.954940 -0.296799 0.000000
vn 0.954940 -0.296799 0.000000
vn 0.954940 -0.296799 0.000000
vn 0.954940 -0.296799 0.000000
vn -0.014826 -0.005503 0.999875
vn -0.014826 -0.005503 0.999875
vn -0.014826 -0.005503 0.999875
vn -0.014826 -0.005503 0.999875
vn -1.000000 -0.000034 -0.000000
vn -1.000000 -0.000034 -0.000000
vn -1.000000 -0.000034 -0.000000
vn -1.000000 -0.000034 -0.000000
vn -0.014829 -0.005503 -0.999875
vn -0.014829 -0.005503 -0.999875
vn -0.014829 -0.005503 -0.999875
vn -0.014829 -0.005503 -0.999875
vn 0.000004 -0.297215 0.954810
vn 0.000004 -0.297215 0.954811
vn 0.000004 -0.297215 0.954811
vn 0.000004 -0.297215 0.954811
vn -0.999882 -0.005345 -0.014406
vn -0.999882 -0.005345 -0.014406
vn -0.999882 -0.005345 -0.014406
vn -0.999882 -0.005345 -0.014406
vn -0.000002 -0.000004 -1.000000
vn -0.000002 -0.000004 -1.000000
vn -0.000002 -0.000004 -1.000000
vn -0.000002 -0.000004 -1.000000
vn 0.999882 -0.005340 -0.014384
vn 0.999882 -0.005340 -0.014384
vn 0.999882 -0.005340 -0.014384
vn 0.999882 -0.005340 -0.014384
vn -0.954923 -0.296855 -0.000003
vn -0.954923 -0.296855 -0.000003
vn -0.954923 -0.296855 -0.000003
vn -0.954923 -0.296855 -0.000003
vn 0.014829 -0.005498 -0.999875
vn 0.014829 -0.005498 -0.999875
vn 0.014829 -0.005498 -0.999875
vn 0.014829 -0.005498 -0.999875
vn 1.000000 0.000030 0.000003
vn 1.000000 0.000030 0.000003
vn 1.000000 0.000030 0.000003
vn 1.000000 0.000030 0.000003
vn 0.014825 -0.005506 0.999875
vn 0.014825 -0.005506 0.999875
vn 0.014825 -0.005506 0.999875
vn 0.014825 -0.005506 0.999875
vn 0.000002 -0.297224 -0.954808
vn 0.000002 -0.297224 -0.954808
vn 0.000002 -0.297224 -0.954808
vn 0.000002 -0.297224 -0.954808
vn 0.999882 -0.005337 0.014386
vn 0.999882 -0.005337 0.014386
vn 0.999882 -0.005337 0.014386
vn 0.999882 -0.005337 0.014386
vn 0.000001 0.000006 1.000000
vn 0.000001 0.000006 1.000000
vn 0.000001 0.000006 1.000000
vn 0.000001 0.000006 1.000000
vn -0.999882 -0.005347 0.014406
vn -0.999882 -0.005347 0.014406
vn -0.999882 -0.005347 0.014406
vn -0.999882 -0.005347 0.014406
vn -0.981042 0.179302 -0.073540
vn -0.981042 0.179302 -0.073540
vn -0.981042 0.179302 -0.073540
vn -0.981042 0.179302 -0.073540
vn -0.873231 -0.487237 0.008201
vn -0.873231 -0.487237 0.008201
vn -0.873231 -0.487237 0.008201
vn -0.873231 -0.487237 0.008201
vn 0.000202 -0.999919 -0.012730
vn 0.000202 -0.999919 -0.012730
vn 0.000202 -0.999919 -0.012730
vn 0.000202 -0.999919 -0.012730
vn 0.834473 0.508554 0.212198
vn 0.834473 0.508554 0.212198
vn 0.834473 0.508554 0.212198
vn 0.834473 0.508554 0.212198
vn -0.981041 0.179302 0.073546
vn -0.981041 0.179302 0.073546
vn -0.981041 0.179302 0.073546
vn -0.981041 0.179302 0.073546
vn 0.834471 0.508553 -0.212206
vn 0.834471 0.508553 -0.212206
vn 0.834471 0.508553 -0.212206
vn 0.834471 0.508553 -0.212206
vn 0.000202 -0.999919 0.012735
vn 0.000202 -0.999919 0.012735
vn 0.000202 -0.999919 0.012735
vn 0.000202 -0.999919 0.012735
vn -0.873231 -0.487237 -0.008193
vn -0.873231 -0.487237 -0.008193
vn -0.873231 -0.487237 -0.008193
vn -0.873231 -0.487237 -0.008193
vn 0.074351 0.179849 -0.980880
vn 0.074351 0.179849 -0.980880
vn 0.074351 0.179849 -0.980880
vn 0.074351 0.179849 -0.980880
vn -0.007952 -0.486761 -0.873499
vn -0.007952 -0.486761 -0.873499
vn -0.007952 -0.486761 -0.873499
vn -0.007952 -0.486761 -0.873499
vn 0.012382 -0.999923 0.000179
vn 0.012382 -0.999923 0.000179
vn 0.012382 -0.999923 0.000179
vn 0.012382 -0.999923 0.000179
vn -0.212792 0.508198 0.834538
vn -0.212792 0.508198 0.834538
vn -0.212792 0.508198 0.834539
vn -0.212792 0.508198 0.834539
vn -0.074317 0.179847 -0.980883
vn -0.074317 0.179847 -0.980883
vn -0.074317 0.179847 -0.980883
vn -0.074317 0.179847 -0.980883
vn 0.212750 0.508204 0.834546
vn 0.212750 0.508204 0.834546
vn 0.212750 0.508204 0.834546
vn 0.212750 0.508204 0.834546
vn -0.012362 -0.999924 0.000180
vn -0.012362 -0.999924 0.000180
vn -0.012362 -0.999924 0.000180
vn -0.012362 -0.999924 0.000180
vn 0.007996 -0.486762 -0.873498
vn 0.007996 -0.486762 -0.873498
vn 0.007996 -0.486762 -0.873498
vn 0.007996 -0.486762 -0.873498
vn 0.981036 0.179328 0.073546
vn 0.981036 0.179328 0.073546
vn 0.981036 0.179328 0.073546
vn 0.981036 0.179328 0.073546
vn 0.873236 -0.487229 -0.008192
vn 0.873236 -0.487229 -0.008192
vn 0.873236 -0.487229 -0.008192
vn 0.873236 -0.487229 -0.008192
vn -0.000177 -0.999919 0.012738
vn -0.000177 -0.999919 0.012738
vn -0.000177 -0.999919 0.012738
vn -0.000177 -0.999919 0.012738
vn -0.834478 0.508542 -0.212208
vn -0.834478 0.508542 -0.212208
vn -0.834478 0.508542 -0.212208
vn -0.834478 0.508542 -0.212208
vn 0.981037 0.179328 -0.073540
vn 0.981037 0.179328 -0.073540
vn 0.981037 0.179328 -0.073540
vn 0.981037 0.179328 -0.073540
vn -0.834479 0.508543 0.212201
vn -0.834479 0.508543 0.212201
vn -0.834479 0.508543 0.212201
vn -0.834479 0.508543 0.212201
vn -0.000177 -0.999919 -0.012735
vn -0.000177 -0.999919 -0.012735
vn -0.000177 -0.999919 -0.012735
vn -0.000177 -0.999919 -0.012735
vn 0.873236 -0.487229 0.008200
vn 0.873236 -0.487229 0.008200
vn 0.873236 -0.487229 0.008200
vn 0.873236 -0.487229 0.008200
vn -0.074318 0.179852 0.980882
vn -0.074318 0.179852 0.980882
vn -0.074318 0.179852 0.980882
vn -0.074318 0.179852 0.980882
vn 0.007994 -0.486760 0.873499
vn 0.007994 -0.486761 0.873499
vn 0.007994 -0.486760 0.873499
vn 0.007994 -0.486761 0.873499
vn -0.012363 -0.999924 -0.000176
vn -0.012363 -0.999924 -0.000176
vn -0.012363 -0.999924 -0.000176
vn -0.012363 -0.999924 -0.000176
vn 0.212752 0.508202 -0.834547
vn 0.212752 0.508202 -0.834547
vn 0.212752 0.508202 -0.834547
vn 0.212752 0.508202 -0.834547
vn 0.074347 0.179853 0.980880
vn 0.074347 0.179853 0.980880
vn 0.074347 0.179853 0.980880
vn 0.074347 0.179853 0.980880
vn -0.212789 0.508197 -0.834540
vn -0.212789 0.508197 -0.834540
vn -0.212789 0.508197 -0.834540
vn -0.212789 0.508197 -0.834540
vn 0.012383 -0.999923 -0.000176
vn 0.012383 -0.999923 -0.000176
vn 0.012383 -0.999923 -0.000176
vn 0.012383 -0.999923 -0.000176
vn -0.007956 -0.486760 0.873500
vn -0.007956 -0.486760 0.873500
vn -0.007956 -0.486760 0.873500
vn -0.007956 -0.486760 0.873500
vn 0.931474 0.363808 0.000000
vn 0.931474 0.363808 0.000000
vn 0.931474 0.363808 0.000000
vn 0.931474 0.363808 0.000000
vn -0.000005 0.392286 0.919843
vn -0.000005 0.392286 0.919843
vn -0.000005 0.392286 0.919843
vn -0.000005 0.392286 0.919843
vn -0.931487 0.363776 -0.000000
vn -0.931487 0.363776 -0.000000
vn -0.931486 0.363776 -0.000000
vn -0.931487 0.363776 -0.000000
vn -0.000010 0.392286 -0.919843
vn -0.000010 0.392286 -0.919843
vn -0.000010 0.392286 -0.919843
vn -0.000010 0.392286 -0.919843
vn 0.000003 0.363794 0.931480
vn 0.000003 0.363794 0.931480
vn 0.000003 0.363794 0.931480
vn 0.000003 0.363794 0.931480
vn -0.923880 0.382683 -0.000015
vn -0.923880 0.382683 -0.000015
vn -0.923880 0.382683 -0.000015
vn -0.923880 0.382683 -0.000015
vn -0.000002 0.363789 -0.931482
vn -0.000002 0.363789 -0.931482
vn -0.000002 0.363789 -0.931482
vn -0.000002 0.363789 -0.931482
vn 0.923878 0.382688 0.000011
vn 0.923878 0.382688 0.000011
vn 0.923878 0.382688 0.000011
vn 0.923878 0.382688 0.000011
vn -0.931486 0.363778 -0.000002
vn -0.931486 0.363778 -0.000002
vn -0.931486 0.363778 -0.000002
vn -0.931486 0.363778 -0.000002
vn -0.000004 0.392288 -0.919842
vn -0.000004 0.392288 -0.919842
vn -0.000004 0.392288 -0.919842
vn -0.000004 0.392288 -0.919842
vn 0.931474 0.363808 0.000005
vn 0.931474 0.363808 0.000005
vn 0.931474 0.363808 0.000005
vn 0.931474 0.363808 0.000005
vn -0.000010 0.392284 0.919844
vn -0.000010 0.392284 0.919844
vn -0.000010 0.392284 0.919844
vn -0.000010 0.392284 0.919844
vn 0.000000 0.363791 -0.931481
vn 0.000000 0.363791 -0.931481
vn 0.000000 0.363791 -0.931481
vn 0.000000 0.363791 -0.931481
vn 0.923879 0.382685 -0.000014
vn 0.923879 0.382685 -0.000014
vn 0.923879 0.382685 -0.000014
vn 0.923879 0.382685 -0.000014
vn 0.000000 0.363794 0.931479
vn 0.000000 0.363794 0.931479
vn 0.000000 0.363794 0.931479
vn 0.000000 0.363794 0.931479
vn -0.923880 0.382683 0.000012
vn -0.923880 0.382683 0.000012
vn -0.923880 0.382683 0.000012
vn -0.923880 0.382683 0.000012
s off
g FF_Stand FlamethrowerTurret
usemtl FF_BaseSG1
f 6/5/1 5/6/2 7/7/3 8/8/4
usemtl FF_BaseSG2
f 90/61/5 89/62/6 91/63/7 92/64/8
f 93/62/9 94/65/10 95/66/11 96/63/12
f 98/65/13 97/67/14 99/68/15 100/66/16
f 102/67/17 101/61/18 103/64/19 104/68/20
usemtl FF_BaseSG
f 1/9/21 2/10/22 4/11/23 3/12/24
f 2/1/25 1/2/26 9/14/27 10/13/28
f 1/2/29 5/6/30 11/15/31 9/14/32
f 5/6/33 6/5/34 12/16/35 11/15/36
f 6/5/37 2/1/38 10/13/39 12/16/40
f 1/2/41 3/3/42 14/18/43 13/17/44
f 3/3/45 7/7/46 15/19/47 14/18/48
f 7/7/49 5/6/50 16/20/51 15/19/52
f 5/6/53 1/2/54 13/17/55 16/20/56
f 3/3/57 4/4/58 17/22/59 18/21/60
f 4/4/61 8/8/62 19/23/63 17/22/64
f 8/8/65 7/7/66 20/24/67 19/23/68
f 7/7/69 3/3/70 18/21/71 20/24/72
f 4/4/73 2/1/74 21/26/75 22/25/76
f 2/1/77 6/5/78 23/27/79 21/26/80
f 6/5/81 8/8/82 24/28/83 23/27/84
f 8/8/85 4/4/86 22/25/87 24/28/88
f 10/26/89 9/2/90 25/30/91 26/29/92
usemtl FF_BaseSG1
f 57/45/93 58/46/94 59/47/95 60/48/96
usemtl FF_BaseSG
f 11/6/97 12/27/98 28/32/99 27/31/100
usemtl FF_BaseSG1
f 62/49/101 61/50/102 63/51/103 64/52/104
usemtl FF_BaseSG
f 13/2/105 14/3/106 30/33/107 29/30/108
f 65/53/109 66/54/110 67/55/111 68/56/112
f 15/7/113 16/6/114 32/31/115 31/34/116
usemtl FF_BaseSG1
f 70/46/117 69/45/118 71/48/119 72/47/120
usemtl FF_BaseSG
f 18/3/121 17/25/122 33/35/123 34/33/124
usemtl FF_BaseSG1
f 73/57/125 74/58/126 75/59/127 76/60/128
usemtl FF_BaseSG
f 19/28/129 20/7/130 36/34/131 35/36/132
usemtl FF_BaseSG1
f 78/54/133 77/53/134 79/56/135 80/55/136
usemtl FF_BaseSG
f 22/25/137 21/26/138 37/29/139 38/35/140
usemtl FF_BaseSG1
f 81/50/141 82/49/142 83/52/143 84/51/144
usemtl FF_BaseSG
f 23/27/145 24/28/146 40/36/147 39/32/148
usemtl FF_BaseSG1
f 86/58/149 85/57/150 87/60/151 88/59/152
usemtl FF_BaseSG
f 26/29/153 25/30/154 41/38/155 42/37/156
f 25/30/157 27/31/158 43/39/159 41/38/160
f 27/31/161 28/32/162 44/40/163 43/39/164
f 28/32/165 26/29/166 42/37/167 44/40/168
f 29/30/169 30/33/170 46/41/171 45/38/172
f 30/33/173 31/34/174 47/42/175 46/41/176
f 31/34/177 32/31/178 48/39/179 47/42/180
f 32/31/181 29/30/182 45/38/183 48/39/184
f 34/33/185 33/35/186 49/43/187 50/41/188
f 33/35/189 35/36/190 51/44/191 49/43/192
f 35/36/193 36/34/194 52/42/195 51/44/196
f 36/34/197 34/33/198 50/41/199 52/42/200
f 38/35/201 37/29/202 53/37/203 54/43/204
f 37/29/205 39/32/206 55/40/207 53/37/208
f 39/32/209 40/36/210 56/44/211 55/40/212
f 40/36/213 38/35/214 54/43/215 56/44/216
usemtl FF_BaseSG1
f 9/2/217 11/6/218 58/46/219 57/45/220
f 11/6/221 27/31/222 59/47/223 58/46/224
f 27/31/225 25/30/226 60/48/227 59/47/228
f 25/30/229 9/2/230 57/45/231 60/48/232
f 12/27/233 10/26/234 61/50/235 62/49/236
f 10/26/237 26/29/238 63/51/239 61/50/240
f 26/29/241 28/32/242 64/52/243 63/51/244
f 28/32/245 12/27/246 62/49/247 64/52/248
f 14/3/249 15/7/250 66/54/251 65/53/252
f 15/7/253 31/34/254 67/55/255 66/54/256
f 31/34/257 30/33/258 68/56/259 67/55/260
f 30/33/261 14/3/262 65/53/263 68/56/264
f 16/6/265 13/2/266 69/45/267 70/46/268
f 13/2/269 29/30/270 71/48/271 69/45/272
f 29/30/273 32/31/274 72/47/275 71/48/276
f 32/31/277 16/6/278 70/46/279 72/47/280
f 17/25/281 19/28/282 74/58/283 73/57/284
f 19/28/285 35/36/286 75/59/287 74/58/288
f 35/36/289 33/35/290 76/60/291 75/59/292
f 33/35/293 17/25/294 73/57/295 76/60/296
f 20/7/297 18/3/298 77/53/299 78/54/300
f 18/3/301 34/33/302 79/56/303 77/53/304
f 34/33/305 36/34/306 80/55/307 79/56/308
f 36/34/309 20/7/310 78/54/311 80/55/312
f 21/26/313 23/27/314 82/49/315 81/50/316
f 23/27/317 39/32/318 83/52/319 82/49/320
f 39/32/321 37/29/322 84/51/323 83/52/324
f 37/29/325 21/26/326 81/50/327 84/51/328
f 24/28/329 22/25/330 85/57/331 86/58/332
f 22/25/333 38/35/334 87/60/335 85/57/336
f 38/35/337 40/36/338 88/59/339 87/60/340
f 40/36/341 24/28/342 86/58/343 88/59/344
usemtl FF_BaseSG2
f 42/37/345 41/38/346 89/62/347 90/61/348
f 41/38/349 43/39/350 91/63/351 89/62/352
f 43/39/353 44/40/354 92/64/355 91/63/356
f 44/40/357 42/37/358 90/61/359 92/64/360
f 45/38/361 46/41/362 94/65/363 93/62/364
f 46/41/365 47/42/366 95/66/367 94/65/368
f 47/42/369 48/39/370 96/63/371 95/66/372
f 48/39/373 45/38/374 93/62/375 96/63/376
f 50/41/377 49/43/378 97/67/379 98/65/380
f 49/43/381 51/44/382 99/68/383 97/67/384
f 51/44/385 52/42/386 100/66/387 99/68/388
f 52/42/389 50/41/390 98/65/391 100/66/392
f 54/43/393 53/37/394 101/61/395 102/67/396
f 53/37/397 55/40/398 103/64/399 101/61/400
f 55/40/401 56/44/402 104/68/403 103/64/404
f 56/44/405 54/43/406 102/67/407 104/68/408
