# This file uses centimeters as units for non-parametric coordinates.

mtllib Fence_3.mtl
g default
v -3.528109 -0.032768 -8.569458
v 6.054594 -0.114048 -9.500610
v -0.955717 303.240112 -8.569458
v 8.626986 303.158813 -9.500610
v -3.667192 303.263123 -36.476196
v 5.915514 303.181824 -37.407349
v -6.239580 -0.009769 -36.476196
v 3.343122 -0.091049 -37.407349
v -4.906183 -0.123817 -88.646118
v 4.721197 0.000000 -88.646118
v -9.170309 331.422272 -88.646118
v 0.457075 331.546112 -88.646118
v -9.170309 331.422272 -124.132324
v 0.457075 331.546112 -124.132324
v -4.906183 -0.123817 -124.132324
v 4.721197 0.000000 -124.132324
v -9.839598 -0.061909 -132.877808
v 9.654612 -0.061909 -132.877808
v -9.839598 324.439178 -132.877808
v 9.654612 324.439178 -132.877808
v -9.839598 324.439178 -147.985352
v 9.654612 324.439178 -147.985352
v -9.839598 -0.061909 -147.985352
v 9.654612 -0.061909 -147.985352
v -5.334204 1.897141 103.054810
v 5.414110 0.933460 103.054810
v 11.322367 187.674271 86.494141
v 22.070681 186.710602 86.494141
v 11.057478 184.719864 53.085205
v 21.805792 183.756180 53.085205
v -5.599096 -1.057278 69.645996
v 5.149218 -2.020958 69.645996
v 1.849314 -0.061909 39.291382
v 12.511389 -0.061909 40.957275
v 1.849314 303.221863 39.291382
v 12.511389 303.221863 40.957275
v 7.026911 303.221863 6.153076
v 17.688986 303.221863 7.818970
v 7.026911 -0.061909 6.153076
v 17.688986 -0.061909 7.818970
v -12.716028 -1.114178 146.649048
v -1.924601 -1.114178 146.649048
v -12.716028 185.772934 158.398682
v -1.924601 185.772934 158.398682
v -12.716028 187.877457 124.924438
v -1.924601 187.877457 124.924438
v -12.716028 0.990360 113.174805
v -1.924601 0.990360 113.174805
v -13.879099 302.750732 -81.120728
v -8.510565 302.750732 -81.120728
v -13.879099 315.931915 -81.120728
v -8.510565 315.931915 -81.120728
v -13.879099 315.931915 -158.398682
v -8.510565 315.931915 -158.398682
v -13.879099 302.750732 -158.398682
v -8.510565 302.750732 -158.398682
v -0.834364 176.327774 56.498901
v 4.433115 176.383530 55.463623
v -0.247301 195.794693 60.534302
v 5.020178 195.850449 59.499146
v -16.631201 213.373627 -21.881836
v -11.363726 213.429382 -22.917114
v -17.218264 193.906708 -25.917358
v -11.950788 193.962463 -26.952637
v -5.631594 193.119766 -0.381592
v -0.318983 193.119766 -1.154419
v -5.631594 223.387955 -0.381592
v -0.318983 223.387955 -1.154419
v -22.070681 223.387955 -113.384277
v -16.758066 223.387955 -114.157104
v -22.070681 193.119766 -113.384277
v -16.758066 193.119766 -114.157104
v -4.568411 41.170593 138.256470
v 0.585604 41.017258 139.751099
v -4.566671 60.956802 140.280518
v 0.587343 60.803463 141.775146
v 13.967039 67.425034 77.031494
v 19.121054 67.271690 78.526123
v 13.965300 47.638824 75.007568
v 19.119316 47.485485 76.502075
v -0.170965 134.105881 86.205566
v 5.081682 133.220123 85.537476
v 3.505041 153.358963 89.581299
v 8.757689 152.473206 88.913330
v -2.617773 165.879745 24.839478
v 2.634871 164.993988 24.171387
v -6.293783 146.626663 21.463623
v -1.041136 145.740906 20.795532
vt 0.026316 0.026316
vt 0.973684 0.026316
vt 0.973684 0.973684
vt 0.026316 0.973684
vt 0.026316 0.026316
vt 0.973684 0.026316
vt 0.973684 0.973684
vt 0.026316 0.973684
vt 0.026316 0.026316
vt 0.973684 0.026316
vt 0.973684 0.973684
vt 0.026316 0.973684
vt 0.026316 0.026316
vt 0.973684 0.026316
vt 0.973684 0.973684
vt 0.026316 0.973684
vt 0.026316 0.026316
vt 0.973684 0.026316
vt 0.973684 0.973684
vt 0.026316 0.973684
vt 0.026316 0.026316
vt 0.973684 0.026316
vt 0.973684 0.973684
vt 0.026316 0.973684
vt 0.026316 0.026316
vt 0.973684 0.026316
vt 0.973684 0.973684
vt 0.026316 0.973684
vt 0.026316 0.026316
vt 0.973684 0.026316
vt 0.973684 0.973684
vt 0.026316 0.973684
vt 0.026316 0.026316
vt 0.973684 0.026316
vt 0.973684 0.973684
vt 0.026316 0.973684
vt 0.026316 0.026316
vt 0.973684 0.026316
vt 0.973684 0.973684
vt 0.026316 0.973684
vt 0.026316 0.026316
vt 0.973684 0.026316
vt 0.973684 0.973684
vt 0.026316 0.973684
vt 0.026316 0.026316
vt 0.973684 0.026316
vt 0.973684 0.973684
vt 0.026316 0.973684
vt 0.026316 0.026316
vt 0.973684 0.026316
vt 0.973684 0.973684
vt 0.026316 0.973684
vt 0.026316 0.026316
vt 0.973684 0.026316
vt 0.973684 0.973684
vt 0.026316 0.973684
vt 0.026316 0.026316
vt 0.973684 0.026316
vt 0.973684 0.973684
vt 0.026316 0.973684
vt 0.026316 0.026316
vt 0.973684 0.026316
vt 0.973684 0.973684
vt 0.026316 0.973684
vt 0.026316 0.026316
vt 0.973684 0.026316
vt 0.973684 0.973684
vt 0.026316 0.973684
vt 0.026316 0.026316
vt 0.973684 0.026316
vt 0.973684 0.973684
vt 0.026316 0.973684
vt 0.026316 0.026316
vt 0.973684 0.026316
vt 0.973684 0.973684
vt 0.026316 0.973684
vt 0.026316 0.026316
vt 0.973684 0.026316
vt 0.973684 0.973684
vt 0.026316 0.973684
vt 0.026316 0.026316
vt 0.973684 0.026316
vt 0.973684 0.973684
vt 0.026316 0.973684
vt 0.026316 0.026316
vt 0.973684 0.026316
vt 0.973684 0.973684
vt 0.026316 0.973684
vt 0.026316 0.026316
vt 0.973684 0.026316
vt 0.973684 0.973684
vt 0.026316 0.973684
vt 0.026316 0.026316
vt 0.973684 0.026316
vt 0.973684 0.973684
vt 0.026316 0.973684
vt 0.026316 0.026316
vt 0.973684 0.026316
vt 0.973684 0.973684
vt 0.026316 0.973684
vt 0.026316 0.026316
vt 0.973684 0.026316
vt 0.973684 0.973684
vt 0.026316 0.973684
vt 0.026316 0.026316
vt 0.973684 0.026316
vt 0.973684 0.973684
vt 0.026316 0.973684
vt 0.026316 0.026316
vt 0.973684 0.026316
vt 0.973684 0.973684
vt 0.026316 0.973684
vt 0.026316 0.026316
vt 0.973684 0.026316
vt 0.973684 0.973684
vt 0.026316 0.973684
vt 0.026316 0.026316
vt 0.973684 0.026316
vt 0.973684 0.973684
vt 0.026316 0.973684
vt 0.026316 0.026316
vt 0.973684 0.026316
vt 0.973684 0.973684
vt 0.026316 0.973684
vt 0.026316 0.026316
vt 0.973684 0.026316
vt 0.973684 0.973684
vt 0.026316 0.973684
vt 0.026316 0.026316
vt 0.973684 0.026316
vt 0.973684 0.973684
vt 0.026316 0.973684
vt 0.026316 0.026316
vt 0.973684 0.026316
vt 0.973684 0.973684
vt 0.026316 0.973684
vt 0.026316 0.026316
vt 0.973684 0.026316
vt 0.973684 0.973684
vt 0.026316 0.973684
vt 0.026316 0.026316
vt 0.973684 0.026316
vt 0.973684 0.973684
vt 0.026316 0.973684
vt 0.026316 0.026316
vt 0.973684 0.026316
vt 0.973684 0.973684
vt 0.026316 0.973684
vt 0.026316 0.026316
vt 0.973684 0.026316
vt 0.973684 0.973684
vt 0.026316 0.973684
vt 0.026316 0.026316
vt 0.973684 0.026316
vt 0.973684 0.973684
vt 0.026316 0.973684
vt 0.026316 0.026316
vt 0.973684 0.026316
vt 0.973684 0.973684
vt 0.026316 0.973684
vt 0.026316 0.026316
vt 0.973684 0.026316
vt 0.973684 0.973684
vt 0.026316 0.973684
vt 0.026316 0.026316
vt 0.973684 0.026316
vt 0.973684 0.973684
vt 0.026316 0.973684
vt 0.026316 0.026316
vt 0.973684 0.026316
vt 0.973684 0.973684
vt 0.026316 0.973684
vt 0.026316 0.026316
vt 0.973684 0.026316
vt 0.973684 0.973684
vt 0.026316 0.973684
vt 0.026316 0.026316
vt 0.973684 0.026316
vt 0.973684 0.973684
vt 0.026316 0.973684
vt 0.026316 0.026316
vt 0.973684 0.026316
vt 0.973684 0.973684
vt 0.026316 0.973684
vt 0.026316 0.026316
vt 0.973684 0.026316
vt 0.973684 0.973684
vt 0.026316 0.973684
vt 0.026316 0.026316
vt 0.973684 0.026316
vt 0.973684 0.973684
vt 0.026316 0.973684
vt 0.026316 0.026316
vt 0.973684 0.026316
vt 0.973684 0.973684
vt 0.026316 0.973684
vt 0.026316 0.026316
vt 0.973684 0.026316
vt 0.973684 0.973684
vt 0.026316 0.973684
vt 0.026316 0.026316
vt 0.973684 0.026316
vt 0.973684 0.973684
vt 0.026316 0.973684
vt 0.026316 0.026316
vt 0.973684 0.026316
vt 0.973684 0.973684
vt 0.026316 0.973684
vt 0.026316 0.026316
vt 0.973684 0.026316
vt 0.973684 0.973684
vt 0.026316 0.973684
vt 0.026316 0.026316
vt 0.973684 0.026316
vt 0.973684 0.973684
vt 0.026316 0.973684
vt 0.026316 0.026316
vt 0.973684 0.026316
vt 0.973684 0.973684
vt 0.026316 0.973684
vt 0.026316 0.026316
vt 0.973684 0.026316
vt 0.973684 0.973684
vt 0.026316 0.973684
vt 0.026316 0.026316
vt 0.973684 0.026316
vt 0.973684 0.973684
vt 0.026316 0.973684
vt 0.026316 0.026316
vt 0.973684 0.026316
vt 0.973684 0.973684
vt 0.026316 0.973684
vt 0.026316 0.026316
vt 0.973684 0.026316
vt 0.973684 0.973684
vt 0.026316 0.973684
vt 0.026316 0.026316
vt 0.973684 0.026316
vt 0.973684 0.973684
vt 0.026316 0.973684
vt 0.026316 0.026316
vt 0.973684 0.026316
vt 0.973684 0.973684
vt 0.026316 0.973684
vt 0.026316 0.026316
vt 0.973684 0.026316
vt 0.973684 0.973684
vt 0.026316 0.973684
vt 0.026316 0.026316
vt 0.973684 0.026316
vt 0.973684 0.973684
vt 0.026316 0.973684
vt 0.026316 0.026316
vt 0.973684 0.026316
vt 0.973684 0.973684
vt 0.026316 0.973684
vt 0.026316 0.026316
vt 0.973684 0.026316
vt 0.973684 0.973684
vt 0.026316 0.973684
vt 0.026316 0.026316
vt 0.973684 0.026316
vt 0.973684 0.973684
vt 0.026316 0.973684
vn 0.096712 -0.000820 0.995312
vn 0.096712 -0.000820 0.995312
vn 0.096712 -0.000820 0.995312
vn 0.096712 -0.000820 0.995312
vn 0.008482 0.999964 0.000000
vn 0.008482 0.999964 0.000000
vn 0.008482 0.999964 0.000000
vn 0.008482 0.999964 0.000000
vn -0.096712 0.000820 -0.995312
vn -0.096712 0.000820 -0.995312
vn -0.096712 0.000820 -0.995312
vn -0.096712 0.000820 -0.995312
vn -0.008482 -0.999964 0.000000
vn -0.008482 -0.999964 0.000000
vn -0.008482 -0.999964 0.000000
vn -0.008482 -0.999964 0.000000
vn 0.995277 -0.008442 -0.096710
vn 0.995277 -0.008442 -0.096710
vn 0.995277 -0.008442 -0.096710
vn 0.995277 -0.008442 -0.096710
vn -0.995277 0.008442 0.096710
vn -0.995277 0.008442 0.096710
vn -0.995277 0.008442 0.096710
vn -0.995277 0.008442 0.096710
vn 0.000000 0.000000 1.000000
vn 0.000000 0.000000 1.000000
vn 0.000000 0.000000 1.000000
vn 0.000000 0.000000 1.000000
vn -0.012862 0.999917 0.000000
vn -0.012862 0.999917 0.000000
vn -0.012862 0.999917 0.000000
vn -0.012862 0.999917 0.000000
vn -0.000010 0.000000 -1.000000
vn -0.000010 0.000000 -1.000000
vn -0.000010 0.000000 -1.000000
vn -0.000010 0.000000 -1.000000
vn 0.012860 -0.999917 0.000000
vn 0.012860 -0.999917 0.000000
vn 0.012860 -0.999917 0.000000
vn 0.012860 -0.999917 0.000000
vn 0.999917 0.012860 0.000000
vn 0.999917 0.012860 0.000000
vn 0.999917 0.012860 0.000000
vn 0.999917 0.012860 0.000000
vn -0.999917 -0.012860 0.000000
vn -0.999917 -0.012860 0.000000
vn -0.999917 -0.012860 0.000000
vn -0.999917 -0.012860 0.000000
vn 0.000000 0.000000 1.000000
vn 0.000000 0.000000 1.000000
vn 0.000000 0.000000 1.000000
vn 0.000000 0.000000 1.000000
vn 0.000000 1.000000 0.000000
vn 0.000000 1.000000 0.000000
vn 0.000000 1.000000 0.000000
vn 0.000000 1.000000 0.000000
vn 0.000000 0.000000 -1.000000
vn 0.000000 0.000000 -1.000000
vn 0.000000 0.000000 -1.000000
vn 0.000000 0.000000 -1.000000
vn 0.000000 -1.000000 0.000000
vn 0.000000 -1.000000 0.000000
vn 0.000000 -1.000000 0.000000
vn 0.000000 -1.000000 0.000000
vn 1.000000 0.000000 0.000000
vn 1.000000 0.000000 0.000000
vn 1.000000 0.000000 0.000000
vn 1.000000 0.000000 0.000000
vn -1.000000 0.000000 0.000000
vn -1.000000 0.000000 0.000000
vn -1.000000 0.000000 0.000000
vn -1.000000 0.000000 0.000000
vn 0.007910 0.088085 0.996082
vn 0.007910 0.088085 0.996082
vn 0.007910 0.088085 0.996082
vn 0.007910 0.088085 0.996082
vn 0.088950 0.992102 -0.088438
vn 0.088950 0.992102 -0.088438
vn 0.088950 0.992102 -0.088438
vn 0.088950 0.992102 -0.088438
vn -0.007895 -0.088086 -0.996082
vn -0.007895 -0.088086 -0.996082
vn -0.007895 -0.088086 -0.996082
vn -0.007895 -0.088086 -0.996082
vn -0.088950 -0.992102 0.088439
vn -0.088950 -0.992102 0.088439
vn -0.088950 -0.992102 0.088439
vn -0.088950 -0.992102 0.088439
vn 0.996005 -0.089300 0.000000
vn 0.996005 -0.089300 0.000000
vn 0.996005 -0.089300 0.000000
vn 0.996005 -0.089300 0.000000
vn -0.996005 0.089300 0.000000
vn -0.996005 0.089300 0.000000
vn -0.996005 0.089300 0.000000
vn -0.996005 0.089300 0.000000
vn -0.154366 0.000000 0.988014
vn -0.154366 0.000000 0.988014
vn -0.154366 0.000000 0.988014
vn -0.154366 0.000000 0.988014
vn 0.000000 1.000000 0.000000
vn 0.000000 1.000000 0.000000
vn 0.000000 1.000000 0.000000
vn 0.000000 1.000000 0.000000
vn 0.154375 0.000000 -0.988012
vn 0.154375 0.000000 -0.988012
vn 0.154375 0.000000 -0.988012
vn 0.154375 0.000000 -0.988012
vn 0.000000 -1.000000 0.000000
vn 0.000000 -1.000000 0.000000
vn 0.000000 -1.000000 0.000000
vn 0.000000 -1.000000 0.000000
vn 0.988013 0.000000 0.154370
vn 0.988013 0.000000 0.154370
vn 0.988013 0.000000 0.154370
vn 0.988013 0.000000 0.154370
vn -0.988013 0.000000 -0.154369
vn -0.988013 0.000000 -0.154369
vn -0.988013 0.000000 -0.154369
vn -0.988013 0.000000 -0.154369
vn 0.000000 -0.062746 0.998030
vn 0.000000 -0.062746 0.998030
vn 0.000000 -0.062746 0.998030
vn 0.000000 -0.062746 0.998030
vn 0.000000 0.998030 0.062746
vn 0.000000 0.998030 0.062746
vn 0.000000 0.998030 0.062746
vn 0.000000 0.998030 0.062746
vn 0.000000 0.062746 -0.998030
vn 0.000000 0.062746 -0.998030
vn 0.000000 0.062746 -0.998030
vn 0.000000 0.062746 -0.998030
vn 0.000000 -0.998030 -0.062747
vn 0.000000 -0.998030 -0.062747
vn 0.000000 -0.998030 -0.062747
vn 0.000000 -0.998030 -0.062747
vn 1.000000 0.000000 0.000000
vn 1.000000 0.000000 0.000000
vn 1.000000 0.000000 0.000000
vn 1.000000 0.000000 0.000000
vn -1.000000 0.000000 0.000000
vn -1.000000 0.000000 0.000000
vn -1.000000 0.000000 0.000000
vn -1.000000 0.000000 0.000000
vn 0.000000 0.000000 1.000000
vn 0.000000 0.000000 1.000000
vn 0.000000 0.000000 1.000000
vn 0.000000 0.000000 1.000000
vn 0.000000 1.000000 0.000000
vn 0.000000 1.000000 0.000000
vn 0.000000 1.000000 0.000000
vn 0.000000 1.000000 0.000000
vn 0.000000 0.000000 -1.000000
vn 0.000000 0.000000 -1.000000
vn 0.000000 0.000000 -1.000000
vn 0.000000 0.000000 -1.000000
vn 0.000000 -1.000000 0.000000
vn 0.000000 -1.000000 0.000000
vn 0.000000 -1.000000 0.000000
vn 0.000000 -1.000000 0.000000
vn 1.000000 0.000000 0.000000
vn 1.000000 0.000000 0.000000
vn 1.000000 0.000000 0.000000
vn 1.000000 0.000000 0.000000
vn -1.000000 0.000000 0.000000
vn -1.000000 0.000000 0.000000
vn -1.000000 0.000000 0.000000
vn -1.000000 0.000000 0.000000
vn 0.190854 -0.204766 0.960024
vn 0.190854 -0.204766 0.960024
vn 0.190854 -0.204766 0.960024
vn 0.190854 -0.204766 0.960024
vn 0.029517 0.978755 0.202896
vn 0.029517 0.978755 0.202896
vn 0.029517 0.978755 0.202896
vn 0.029517 0.978755 0.202896
vn -0.190872 0.204769 -0.960020
vn -0.190872 0.204769 -0.960020
vn -0.190872 0.204769 -0.960020
vn -0.190872 0.204769 -0.960020
vn -0.029512 -0.978756 -0.202895
vn -0.029512 -0.978756 -0.202895
vn -0.029512 -0.978756 -0.202895
vn -0.029512 -0.978756 -0.202895
vn 0.981176 0.010386 -0.192837
vn 0.981176 0.010386 -0.192837
vn 0.981176 0.010386 -0.192837
vn 0.981176 0.010386 -0.192837
vn -0.981176 -0.010386 0.192837
vn -0.981176 -0.010386 0.192837
vn -0.981176 -0.010386 0.192837
vn -0.981176 -0.010386 0.192837
vn 0.143970 0.000000 0.989582
vn 0.143970 0.000000 0.989582
vn 0.143970 0.000000 0.989582
vn 0.143970 0.000000 0.989582
vn 0.000000 1.000000 0.000000
vn 0.000000 1.000000 0.000000
vn 0.000000 1.000000 0.000000
vn 0.000000 1.000000 0.000000
vn -0.143946 0.000000 -0.989586
vn -0.143946 0.000000 -0.989586
vn -0.143946 0.000000 -0.989586
vn -0.143946 0.000000 -0.989586
vn 0.000000 -1.000000 0.000000
vn 0.000000 -1.000000 0.000000
vn 0.000000 -1.000000 0.000000
vn 0.000000 -1.000000 0.000000
vn 0.989584 0.000000 -0.143960
vn 0.989584 0.000000 -0.143960
vn 0.989584 0.000000 -0.143960
vn 0.989584 0.000000 -0.143960
vn -0.989584 0.000000 0.143960
vn -0.989584 0.000000 0.143960
vn -0.989584 0.000000 0.143960
vn -0.989584 0.000000 0.143960
vn -0.279861 -0.097674 0.955059
vn -0.279861 -0.097674 0.955059
vn -0.279861 -0.097674 0.955059
vn -0.279861 -0.097674 0.955059
vn 0.000091 0.994809 0.101761
vn 0.000091 0.994809 0.101761
vn 0.000091 0.994809 0.101761
vn 0.000091 0.994809 0.101761
vn 0.279844 0.097672 -0.955064
vn 0.279844 0.097672 -0.955064
vn 0.279844 0.097672 -0.955064
vn 0.279844 0.097672 -0.955064
vn -0.000085 -0.994809 -0.101761
vn -0.000085 -0.994809 -0.101761
vn -0.000085 -0.994809 -0.101761
vn -0.000085 -0.994809 -0.101761
vn 0.960041 -0.028563 0.278397
vn 0.960041 -0.028563 0.278397
vn 0.960041 -0.028563 0.278397
vn 0.960041 -0.028563 0.278397
vn -0.960041 0.028563 -0.278398
vn -0.960041 0.028563 -0.278398
vn -0.960041 0.028563 -0.278398
vn -0.960041 0.028563 -0.278398
vn 0.092428 -0.189063 0.977605
vn 0.092428 -0.189063 0.977605
vn 0.092428 -0.189063 0.977605
vn 0.092428 -0.189063 0.977605
vn 0.184819 0.968005 0.169729
vn 0.184819 0.968005 0.169729
vn 0.184819 0.968005 0.169729
vn 0.184819 0.968005 0.169729
vn -0.092428 0.189068 -0.977604
vn -0.092428 0.189067 -0.977605
vn -0.092428 0.189068 -0.977604
vn -0.092428 0.189068 -0.977604
vn -0.184821 -0.968005 -0.169728
vn -0.184821 -0.968005 -0.169728
vn -0.184821 -0.968005 -0.169728
vn -0.184821 -0.968005 -0.169728
vn 0.978414 -0.164990 -0.124439
vn 0.978414 -0.164990 -0.124439
vn 0.978414 -0.164990 -0.124439
vn 0.978414 -0.164990 -0.124439
vn -0.978413 0.164990 0.124440
vn -0.978414 0.164990 0.124440
vn -0.978414 0.164990 0.124440
vn -0.978413 0.164990 0.124440
s off
g Fence_3
usemtl Fence_3_initialShadingGroup
f 1/1/1 2/2/2 4/3/3 3/4/4
f 3/5/5 4/6/6 6/7/7 5/8/8
f 5/9/9 6/10/10 8/11/11 7/12/12
f 7/13/13 8/14/14 2/15/15 1/16/16
f 2/17/17 8/18/18 6/19/19 4/20/20
f 7/21/21 1/22/22 3/23/23 5/24/24
f 9/25/25 10/26/26 12/27/27 11/28/28
f 11/29/29 12/30/30 14/31/31 13/32/32
f 13/33/33 14/34/34 16/35/35 15/36/36
f 15/37/37 16/38/38 10/39/39 9/40/40
f 10/41/41 16/42/42 14/43/43 12/44/44
f 15/45/45 9/46/46 11/47/47 13/48/48
f 17/49/49 18/50/50 20/51/51 19/52/52
f 19/53/53 20/54/54 22/55/55 21/56/56
f 21/57/57 22/58/58 24/59/59 23/60/60
f 23/61/61 24/62/62 18/63/63 17/64/64
f 18/65/65 24/66/66 22/67/67 20/68/68
f 23/69/69 17/70/70 19/71/71 21/72/72
f 25/73/73 26/74/74 28/75/75 27/76/76
f 27/77/77 28/78/78 30/79/79 29/80/80
f 29/81/81 30/82/82 32/83/83 31/84/84
f 31/85/85 32/86/86 26/87/87 25/88/88
f 26/89/89 32/90/90 30/91/91 28/92/92
f 31/93/93 25/94/94 27/95/95 29/96/96
f 33/97/97 34/98/98 36/99/99 35/100/100
f 35/101/101 36/102/102 38/103/103 37/104/104
f 37/105/105 38/106/106 40/107/107 39/108/108
f 39/109/109 40/110/110 34/111/111 33/112/112
f 34/113/113 40/114/114 38/115/115 36/116/116
f 39/117/117 33/118/118 35/119/119 37/120/120
f 41/121/121 42/122/122 44/123/123 43/124/124
f 43/125/125 44/126/126 46/127/127 45/128/128
f 45/129/129 46/130/130 48/131/131 47/132/132
f 47/133/133 48/134/134 42/135/135 41/136/136
f 42/137/137 48/138/138 46/139/139 44/140/140
f 47/141/141 41/142/142 43/143/143 45/144/144
f 49/145/145 50/146/146 52/147/147 51/148/148
f 51/149/149 52/150/150 54/151/151 53/152/152
f 53/153/153 54/154/154 56/155/155 55/156/156
f 55/157/157 56/158/158 50/159/159 49/160/160
f 50/161/161 56/162/162 54/163/163 52/164/164
f 55/165/165 49/166/166 51/167/167 53/168/168
f 57/169/169 58/170/170 60/171/171 59/172/172
f 59/173/173 60/174/174 62/175/175 61/176/176
f 61/177/177 62/178/178 64/179/179 63/180/180
f 63/181/181 64/182/182 58/183/183 57/184/184
f 58/185/185 64/186/186 62/187/187 60/188/188
f 63/189/189 57/190/190 59/191/191 61/192/192
f 65/193/193 66/194/194 68/195/195 67/196/196
f 67/197/197 68/198/198 70/199/199 69/200/200
f 69/201/201 70/202/202 72/203/203 71/204/204
f 71/205/205 72/206/206 66/207/207 65/208/208
f 66/209/209 72/210/210 70/211/211 68/212/212
f 71/213/213 65/214/214 67/215/215 69/216/216
f 73/217/217 74/218/218 76/219/219 75/220/220
f 75/221/221 76/222/222 78/223/223 77/224/224
f 77/225/225 78/226/226 80/227/227 79/228/228
f 79/229/229 80/230/230 74/231/231 73/232/232
f 74/233/233 80/234/234 78/235/235 76/236/236
f 79/237/237 73/238/238 75/239/239 77/240/240
f 81/241/241 82/242/242 84/243/243 83/244/244
f 83/245/245 84/246/246 86/247/247 85/248/248
f 85/249/249 86/250/250 88/251/251 87/252/252
f 87/253/253 88/254/254 82/255/255 81/256/256
f 82/257/257 88/258/258 86/259/259 84/260/260
f 87/261/261 81/262/262 83/263/263 85/264/264
