# This file uses centimeters as units for non-parametric coordinates.

mtllib Fence_2.mtl
g default
v -9.114133 240.273788 -31.400549
v -0.234605 240.273788 -32.173618
v -8.879844 266.143860 -28.709570
v -0.000316 266.143860 -29.482700
v -17.506660 276.528595 -127.794106
v -8.627131 276.528595 -128.567169
v -17.740948 250.658524 -130.485016
v -8.861421 250.658524 -131.258148
v -6.988964 0.000000 21.228113
v 6.896977 0.000000 21.228113
v -6.988964 305.064911 21.228113
v 6.896977 305.064911 21.228113
v -6.988964 305.064911 -17.020786
v 6.896977 305.064911 -17.020786
v -6.988964 0.000000 -17.020786
v 6.896977 0.000000 -17.020786
v -0.446832 0.000000 -53.232395
v 12.632831 0.000000 -48.569553
v -0.446832 322.700989 -53.232395
v 12.632831 322.700989 -48.569553
v 10.285817 322.700989 -83.338600
v 23.365479 322.700989 -78.675758
v 10.285817 0.000000 -83.338600
v 23.365479 0.000000 -78.675758
v -4.707669 0.000000 -92.328896
v 8.967406 0.000000 -94.739662
v -4.707669 322.700989 -92.328896
v 8.967406 322.700989 -94.739662
v -9.059394 322.700989 -117.014320
v 4.615682 322.700989 -119.425087
v -9.059394 0.000000 -117.014320
v 4.615682 0.000000 -119.425087
v -11.772385 1.611008 91.285789
v 1.625129 1.964706 94.919090
v -11.772385 305.240509 61.726955
v 1.625129 305.594208 65.360252
v -1.717117 301.664795 24.997095
v 11.680397 302.018524 28.630398
v -1.717117 -1.964706 54.555935
v 11.680397 -1.611008 58.189236
v -23.365480 0.270538 131.258148
v -9.490086 -0.270538 131.258148
v -11.478117 305.103760 131.258148
v 2.397278 304.562683 131.258148
v -11.478117 305.103760 102.723961
v 2.397278 304.562683 102.723961
v -23.365480 0.270538 102.723961
v -9.490086 -0.270538 102.723961
v -1.495193 269.109772 121.411095
v 6.130171 269.012421 121.683067
v -1.096004 295.047363 119.503380
v 6.529360 294.950012 119.775352
v 1.336193 289.858337 49.461514
v 8.961557 289.760986 49.733486
v 0.937004 263.920746 51.369228
v 8.562368 263.823395 51.641201
v -20.618866 221.782516 46.186001
v -11.712137 221.668808 46.503689
v -20.384577 247.652603 48.876980
v -11.477848 247.538879 49.194668
v -16.707348 257.958679 -50.522556
v -7.800619 257.844940 -50.204868
v -16.941637 232.088593 -53.213535
v -8.034908 231.974869 -52.895847
vt 0.783225 0.913698
vt 0.084975 0.215447
vt 0.298642 0.001780
vt 0.996892 0.700031
vt 0.783225 0.913698
vt 0.084975 0.215447
vt 0.298642 0.001780
vt 0.996892 0.700031
vt 0.783225 0.913698
vt 0.084975 0.215447
vt 0.298642 0.001780
vt 0.996892 0.700031
vt 0.783225 0.913698
vt 0.084975 0.215447
vt 0.298642 0.001780
vt 0.996892 0.700031
vt 0.783225 0.913698
vt 0.084975 0.215447
vt 0.298642 0.001780
vt 0.996892 0.700031
vt 0.783225 0.913698
vt 0.084975 0.215447
vt 0.298642 0.001780
vt 0.996892 0.700031
vt 0.000138 0.291428
vt 0.075040 0.216525
vt 0.782147 0.923632
vt 0.707245 0.998535
vt 0.000138 0.291428
vt 0.075040 0.216525
vt 0.782147 0.923632
vt 0.707245 0.998535
vt 0.000138 0.291428
vt 0.075040 0.216525
vt 0.782147 0.923632
vt 0.707245 0.998535
vt 0.000138 0.291428
vt 0.075040 0.216525
vt 0.782147 0.923632
vt 0.707245 0.998535
vt 0.000138 0.291428
vt 0.075040 0.216525
vt 0.782147 0.923632
vt 0.707245 0.998535
vt 0.000138 0.291428
vt 0.075040 0.216525
vt 0.782147 0.923632
vt 0.707245 0.998535
vt 0.000138 0.291428
vt 0.075040 0.216525
vt 0.782147 0.923632
vt 0.707245 0.998535
vt 0.000138 0.291428
vt 0.075040 0.216525
vt 0.782147 0.923632
vt 0.707245 0.998535
vt 0.000138 0.291428
vt 0.075040 0.216525
vt 0.782147 0.923632
vt 0.707245 0.998535
vt 0.000138 0.291428
vt 0.075040 0.216525
vt 0.782147 0.923632
vt 0.707245 0.998535
vt 0.000138 0.291428
vt 0.075040 0.216525
vt 0.782147 0.923632
vt 0.707245 0.998535
vt 0.000138 0.291428
vt 0.075040 0.216525
vt 0.782147 0.923632
vt 0.707245 0.998535
vt 0.000138 0.291428
vt 0.075040 0.216525
vt 0.782147 0.923632
vt 0.707245 0.998535
vt 0.000138 0.291428
vt 0.075040 0.216525
vt 0.782147 0.923632
vt 0.707245 0.998535
vt 0.000138 0.291428
vt 0.075040 0.216525
vt 0.782147 0.923632
vt 0.707245 0.998535
vt 0.000138 0.291428
vt 0.075040 0.216525
vt 0.782147 0.923632
vt 0.707245 0.998535
vt 0.000138 0.291428
vt 0.075040 0.216525
vt 0.782147 0.923632
vt 0.707245 0.998535
vt 0.000138 0.291428
vt 0.075040 0.216525
vt 0.782147 0.923632
vt 0.707245 0.998535
vt 0.000138 0.291428
vt 0.075040 0.216525
vt 0.782147 0.923632
vt 0.707245 0.998535
vt 0.000138 0.291428
vt 0.075040 0.216525
vt 0.782147 0.923632
vt 0.707245 0.998535
vt 0.000138 0.291428
vt 0.075040 0.216525
vt 0.782147 0.923632
vt 0.707245 0.998535
vt 0.000138 0.291428
vt 0.075040 0.216525
vt 0.782147 0.923632
vt 0.707245 0.998535
vt 0.000138 0.291428
vt 0.075040 0.216525
vt 0.782147 0.923632
vt 0.707245 0.998535
vt 0.000138 0.291428
vt 0.075040 0.216525
vt 0.782147 0.923632
vt 0.707245 0.998535
vt 0.000138 0.291428
vt 0.075040 0.216525
vt 0.782147 0.923632
vt 0.707245 0.998535
vt 0.000138 0.291428
vt 0.075040 0.216525
vt 0.782147 0.923632
vt 0.707245 0.998535
vt 0.000138 0.291428
vt 0.075040 0.216525
vt 0.782147 0.923632
vt 0.707245 0.998535
vt 0.000138 0.291428
vt 0.075040 0.216525
vt 0.782147 0.923632
vt 0.707245 0.998535
vt 0.000138 0.291428
vt 0.075040 0.216525
vt 0.782147 0.923632
vt 0.707245 0.998535
vt 0.000138 0.291428
vt 0.075040 0.216525
vt 0.782147 0.923632
vt 0.707245 0.998535
vt 0.783225 0.913698
vt 0.084975 0.215447
vt 0.298642 0.001780
vt 0.996892 0.700031
vt 0.783225 0.913698
vt 0.084975 0.215447
vt 0.298642 0.001780
vt 0.996892 0.700031
vt 0.783225 0.913698
vt 0.084975 0.215447
vt 0.298642 0.001780
vt 0.996892 0.700031
vt 0.783225 0.913698
vt 0.084975 0.215447
vt 0.298642 0.001780
vt 0.996892 0.700031
vt 0.783225 0.913698
vt 0.084975 0.215447
vt 0.298642 0.001780
vt 0.996892 0.700031
vt 0.783225 0.913698
vt 0.084975 0.215447
vt 0.298642 0.001780
vt 0.996892 0.700031
vt 0.783225 0.913698
vt 0.084975 0.215447
vt 0.298642 0.001780
vt 0.996892 0.700031
vt 0.783225 0.913698
vt 0.084975 0.215447
vt 0.298642 0.001780
vt 0.996892 0.700031
vt 0.783225 0.913698
vt 0.084975 0.215447
vt 0.298642 0.001780
vt 0.996892 0.700031
vt 0.783225 0.913698
vt 0.084975 0.215447
vt 0.298642 0.001780
vt 0.996892 0.700031
vt 0.783225 0.913698
vt 0.084975 0.215447
vt 0.298642 0.001780
vt 0.996892 0.700031
vt 0.783225 0.913698
vt 0.084975 0.215447
vt 0.298642 0.001780
vt 0.996892 0.700031
vn 0.086276 -0.103847 0.990844
vn 0.086276 -0.103847 0.990844
vn 0.086276 -0.103847 0.990844
vn 0.086276 -0.103847 0.990844
vn 0.009008 0.994593 0.103456
vn 0.009008 0.994593 0.103456
vn 0.009008 0.994593 0.103456
vn 0.009008 0.994593 0.103456
vn -0.086276 0.103847 -0.990844
vn -0.086276 0.103847 -0.990844
vn -0.086276 0.103847 -0.990844
vn -0.086276 0.103847 -0.990844
vn -0.009007 -0.994593 -0.103456
vn -0.009007 -0.994593 -0.103456
vn -0.009007 -0.994593 -0.103456
vn -0.009007 -0.994593 -0.103456
vn 0.996231 0.000000 -0.086737
vn 0.996231 0.000000 -0.086737
vn 0.996231 0.000000 -0.086737
vn 0.996231 0.000000 -0.086737
vn -0.996231 0.000000 0.086737
vn -0.996231 0.000000 0.086737
vn -0.996231 0.000000 0.086737
vn -0.996231 0.000000 0.086737
vn 0.000000 0.000000 1.000000
vn 0.000000 0.000000 1.000000
vn 0.000000 0.000000 1.000000
vn 0.000000 0.000000 1.000000
vn 0.000000 1.000000 0.000000
vn 0.000000 1.000000 0.000000
vn 0.000000 1.000000 0.000000
vn 0.000000 1.000000 0.000000
vn 0.000000 0.000000 -1.000000
vn 0.000000 0.000000 -1.000000
vn 0.000000 0.000000 -1.000000
vn 0.000000 0.000000 -1.000000
vn 0.000000 -1.000000 0.000000
vn 0.000000 -1.000000 0.000000
vn 0.000000 -1.000000 0.000000
vn 0.000000 -1.000000 0.000000
vn 1.000000 0.000000 0.000000
vn 1.000000 0.000000 0.000000
vn 1.000000 0.000000 0.000000
vn 1.000000 0.000000 0.000000
vn -1.000000 0.000000 0.000000
vn -1.000000 0.000000 0.000000
vn -1.000000 0.000000 0.000000
vn -1.000000 0.000000 0.000000
vn -0.335796 0.000000 0.941935
vn -0.335796 0.000000 0.941935
vn -0.335796 0.000000 0.941935
vn -0.335796 0.000000 0.941935
vn 0.000000 1.000000 0.000000
vn 0.000000 1.000000 0.000000
vn 0.000000 1.000000 0.000000
vn 0.000000 1.000000 0.000000
vn 0.335796 0.000000 -0.941935
vn 0.335796 0.000000 -0.941935
vn 0.335796 0.000000 -0.941935
vn 0.335796 0.000000 -0.941935
vn 0.000000 -1.000000 0.000000
vn 0.000000 -1.000000 0.000000
vn 0.000000 -1.000000 0.000000
vn 0.000000 -1.000000 0.000000
vn 0.941936 0.000000 0.335794
vn 0.941936 0.000000 0.335794
vn 0.941936 0.000000 0.335794
vn 0.941936 0.000000 0.335794
vn -0.941936 0.000000 -0.335794
vn -0.941936 0.000000 -0.335794
vn -0.941936 0.000000 -0.335794
vn -0.941936 0.000000 -0.335794
vn 0.173615 0.000000 0.984814
vn 0.173615 0.000000 0.984814
vn 0.173615 0.000000 0.984814
vn 0.173615 0.000000 0.984814
vn 0.000000 1.000000 0.000000
vn 0.000000 1.000000 0.000000
vn 0.000000 1.000000 0.000000
vn 0.000000 1.000000 0.000000
vn -0.173611 0.000000 -0.984814
vn -0.173611 0.000000 -0.984814
vn -0.173611 0.000000 -0.984814
vn -0.173611 0.000000 -0.984814
vn 0.000000 -1.000000 0.000000
vn 0.000000 -1.000000 0.000000
vn 0.000000 -1.000000 0.000000
vn 0.000000 -1.000000 0.000000
vn 0.984814 0.000000 -0.173610
vn 0.984814 0.000000 -0.173610
vn 0.984814 0.000000 -0.173610
vn 0.984814 0.000000 -0.173610
vn -0.984814 0.000000 0.173610
vn -0.984814 0.000000 0.173610
vn -0.984814 0.000000 0.173610
vn -0.984814 0.000000 0.173610
vn -0.262888 0.093485 0.960287
vn -0.262888 0.093485 0.960287
vn -0.262888 0.093485 0.960287
vn -0.262888 0.093485 0.960287
vn 0.000001 0.995295 -0.096893
vn 0.000001 0.995295 -0.096893
vn 0.000001 0.995295 -0.096893
vn 0.000001 0.995295 -0.096893
vn 0.262895 -0.093485 -0.960285
vn 0.262895 -0.093485 -0.960285
vn 0.262895 -0.093485 -0.960285
vn 0.262895 -0.093485 -0.960285
vn 0.000000 -0.995295 0.096893
vn 0.000000 -0.995295 0.096893
vn 0.000000 -0.995295 0.096893
vn 0.000000 -0.995295 0.096893
vn 0.964826 0.025472 0.261653
vn 0.964826 0.025472 0.261653
vn 0.964826 0.025472 0.261653
vn 0.964826 0.025472 0.261653
vn -0.964826 -0.025472 -0.261653
vn -0.964826 -0.025472 -0.261653
vn -0.964826 -0.025472 -0.261653
vn -0.964826 -0.025472 -0.261653
vn 0.000000 0.000000 1.000000
vn 0.000000 0.000000 1.000000
vn 0.000000 0.000000 1.000000
vn 0.000000 0.000000 1.000000
vn 0.038966 0.999241 0.000000
vn 0.038966 0.999241 0.000000
vn 0.038966 0.999241 0.000000
vn 0.038966 0.999241 0.000000
vn 0.000000 0.000000 -1.000000
vn 0.000000 0.000000 -1.000000
vn 0.000000 0.000000 -1.000000
vn 0.000000 0.000000 -1.000000
vn -0.038966 -0.999241 0.000000
vn -0.038966 -0.999241 0.000000
vn -0.038966 -0.999241 0.000000
vn -0.038966 -0.999241 0.000000
vn 0.999241 -0.038967 0.000000
vn 0.999241 -0.038967 0.000000
vn 0.999241 -0.038967 0.000000
vn 0.999241 -0.038967 0.000000
vn -0.999241 0.038967 0.000000
vn -0.999241 0.038967 0.000000
vn -0.999241 0.038967 0.000000
vn -0.999241 0.038967 0.000000
vn -0.034608 0.073838 0.996670
vn -0.034608 0.073838 0.996670
vn -0.034608 0.073838 0.996670
vn -0.034608 0.073838 0.996670
vn 0.015346 0.997189 -0.073343
vn 0.015346 0.997189 -0.073343
vn 0.015346 0.997189 -0.073343
vn 0.015346 0.997189 -0.073343
vn 0.034608 -0.073838 -0.996670
vn 0.034608 -0.073838 -0.996670
vn 0.034608 -0.073838 -0.996670
vn 0.034608 -0.073838 -0.996670
vn -0.015348 -0.997189 0.073343
vn -0.015348 -0.997189 0.073343
vn -0.015348 -0.997189 0.073343
vn -0.015348 -0.997189 0.073343
vn 0.999283 -0.012758 0.035645
vn 0.999283 -0.012758 0.035645
vn 0.999283 -0.012758 0.035645
vn 0.999283 -0.012758 0.035645
vn -0.999283 0.012758 -0.035645
vn -0.999283 0.012758 -0.035645
vn -0.999283 0.012758 -0.035645
vn -0.999283 0.012758 -0.035645
vn -0.036756 -0.103061 0.993996
vn -0.036756 -0.103061 0.993996
vn -0.036756 -0.103061 0.993996
vn -0.036756 -0.103061 0.993996
vn 0.009008 0.994593 0.103456
vn 0.009008 0.994593 0.103456
vn 0.009008 0.994593 0.103456
vn 0.009008 0.994593 0.103456
vn 0.036765 0.103061 -0.993995
vn 0.036765 0.103061 -0.993995
vn 0.036765 0.103061 -0.993995
vn 0.036765 0.103061 -0.993995
vn -0.009010 -0.994593 -0.103456
vn -0.009009 -0.994593 -0.103456
vn -0.009009 -0.994593 -0.103456
vn -0.009009 -0.994593 -0.103456
vn 0.999283 -0.012758 0.035645
vn 0.999283 -0.012758 0.035645
vn 0.999283 -0.012758 0.035645
vn 0.999283 -0.012758 0.035645
vn -0.999283 0.012758 -0.035645
vn -0.999283 0.012758 -0.035645
vn -0.999283 0.012758 -0.035645
vn -0.999283 0.012758 -0.035645
s off
g Fence_2
usemtl Fence_2_initialShadingGroup
f 1/1/1 2/2/2 4/3/3 3/4/4
f 3/5/5 4/6/6 6/7/7 5/8/8
f 5/9/9 6/10/10 8/11/11 7/12/12
f 7/13/13 8/14/14 2/15/15 1/16/16
f 2/17/17 8/18/18 6/19/19 4/20/20
f 7/21/21 1/22/22 3/23/23 5/24/24
f 9/25/25 10/26/26 12/27/27 11/28/28
f 11/29/29 12/30/30 14/31/31 13/32/32
f 13/33/33 14/34/34 16/35/35 15/36/36
f 15/37/37 16/38/38 10/39/39 9/40/40
f 10/41/41 16/42/42 14/43/43 12/44/44
f 15/45/45 9/46/46 11/47/47 13/48/48
f 17/49/49 18/50/50 20/51/51 19/52/52
f 19/53/53 20/54/54 22/55/55 21/56/56
f 21/57/57 22/58/58 24/59/59 23/60/60
f 23/61/61 24/62/62 18/63/63 17/64/64
f 18/65/65 24/66/66 22/67/67 20/68/68
f 23/69/69 17/70/70 19/71/71 21/72/72
f 25/73/73 26/74/74 28/75/75 27/76/76
f 27/77/77 28/78/78 30/79/79 29/80/80
f 29/81/81 30/82/82 32/83/83 31/84/84
f 31/85/85 32/86/86 26/87/87 25/88/88
f 26/89/89 32/90/90 30/91/91 28/92/92
f 31/93/93 25/94/94 27/95/95 29/96/96
f 33/97/97 34/98/98 36/99/99 35/100/100
f 35/101/101 36/102/102 38/103/103 37/104/104
f 37/105/105 38/106/106 40/107/107 39/108/108
f 39/109/109 40/110/110 34/111/111 33/112/112
f 34/113/113 40/114/114 38/115/115 36/116/116
f 39/117/117 33/118/118 35/119/119 37/120/120
f 41/121/121 42/122/122 44/123/123 43/124/124
f 43/125/125 44/126/126 46/127/127 45/128/128
f 45/129/129 46/130/130 48/131/131 47/132/132
f 47/133/133 48/134/134 42/135/135 41/136/136
f 42/137/137 48/138/138 46/139/139 44/140/140
f 47/141/141 41/142/142 43/143/143 45/144/144
f 49/145/145 50/146/146 52/147/147 51/148/148
f 51/149/149 52/150/150 54/151/151 53/152/152
f 53/153/153 54/154/154 56/155/155 55/156/156
f 55/157/157 56/158/158 50/159/159 49/160/160
f 50/161/161 56/162/162 54/163/163 52/164/164
f 55/165/165 49/166/166 51/167/167 53/168/168
f 57/169/169 58/170/170 60/171/171 59/172/172
f 59/173/173 60/174/174 62/175/175 61/176/176
f 61/177/177 62/178/178 64/179/179 63/180/180
f 63/181/181 64/182/182 58/183/183 57/184/184
f 58/185/185 64/186/186 62/187/187 60/188/188
f 63/189/189 57/190/190 59/191/191 61/192/192
