# This file uses centimeters as units for non-parametric coordinates.

mtllib Pillar_Broke.mtl
g default
v -120.821770 0.000000 120.821777
v 120.821770 0.000000 120.821777
v -120.821770 25.679726 120.821777
v 120.821770 25.679726 120.821777
v -120.821770 25.679726 -120.821808
v 120.821770 25.679726 -120.821808
v -120.821770 0.000000 -120.821808
v 120.821770 0.000000 -120.821808
v -103.512741 25.679726 103.512756
v 103.512741 25.679726 103.512756
v -103.512741 36.022602 103.512756
v 103.512741 36.022602 103.512756
v -103.512741 36.022602 -103.512695
v 103.512741 36.022602 -103.512695
v -103.512741 25.679726 -103.512695
v 103.512741 25.679726 -103.512695
v 72.765526 36.022614 -52.867279
v 27.793953 36.022614 -85.541046
v -27.793964 36.022614 -85.541046
v -72.765526 36.022614 -52.867279
v -89.943146 36.022614 0.000000
v -72.765526 36.022614 52.867249
v -27.793953 36.022614 85.541016
v 27.793966 36.022614 85.541016
v 72.765526 36.022614 52.867249
v 89.943146 36.022614 0.000000
v 72.765526 120.865143 -52.867249
v 27.793953 120.865143 -85.541046
v -27.793964 120.865143 -85.541016
v -72.765526 120.865143 -52.867249
v -89.943146 120.865143 0.000000
v -72.765526 120.865143 52.867249
v -27.793953 120.865143 85.541016
v 27.793966 120.865143 85.541016
v 72.765526 120.865143 52.867249
v 89.943146 120.865143 0.000000
v 27.793953 138.912994 -85.541046
v -27.793964 138.912994 -85.541016
v -72.765526 138.912994 -52.867249
v -89.943146 138.912994 0.000000
v -72.765526 138.912994 52.867249
v -27.793953 138.912994 85.541016
v 27.793966 138.912994 85.541016
v 72.765526 138.912994 52.867249
v 89.943146 138.912994 0.000000
v 72.765526 138.912994 -52.867249
v 26.930077 686.669312 -85.541046
v -26.930084 672.917908 -85.541016
v -72.765526 662.347046 -52.867249
v -89.943146 662.347046 0.000000
v -72.765526 645.897095 52.867249
v -27.793953 662.347046 85.541016
v 27.793966 662.347046 85.541016
v 72.765526 628.584595 52.867249
v 89.943146 628.584595 0.000000
v 72.765526 662.347046 -52.867249
v 32.585873 120.865143 -100.289032
v -32.585888 120.865143 -100.289032
v -32.585888 138.912994 -100.289032
v 32.585873 138.912994 -100.289032
v -85.310944 120.865143 -61.982056
v -85.310944 138.912994 -61.982056
v -105.450119 120.865143 0.000000
v -105.450119 138.912994 0.000000
v -85.310944 120.865143 61.982056
v -85.310944 138.912994 61.982056
v -32.585869 120.865143 100.289001
v -32.585869 138.912994 100.289001
v 32.585888 120.865143 100.289001
v 32.585888 138.912994 100.289001
v 85.310944 120.865143 61.982056
v 85.310944 138.912994 61.982056
v 105.450119 120.865143 0.000000
v 105.450119 138.912994 0.000000
v 85.310944 120.865143 -61.981995
v 85.310944 138.912994 -61.981995
v -8.588812 645.897095 26.433655
v 8.588812 686.669312 -26.433655
v 58.868557 662.347046 -10.096741
v 41.690941 662.347046 42.770508
v -58.868557 645.897095 10.096741
v -41.690941 662.347046 -42.770508
vt 0.006249 0.505342
vt 0.495437 0.505342
vt 0.495437 0.994530
vt 0.006249 0.994530
vt 0.006249 0.505342
vt 0.495437 0.505342
vt 0.495437 0.994530
vt 0.006249 0.994530
vt 0.006249 0.505342
vt 0.495437 0.505342
vt 0.495437 0.994530
vt 0.006249 0.994530
vt 0.006249 0.505342
vt 0.495437 0.505342
vt 0.495437 0.994530
vt 0.006249 0.994530
vt 0.006249 0.505342
vt 0.495437 0.505342
vt 0.495437 0.994530
vt 0.006249 0.994530
vt 0.005961 0.001541
vt 0.495149 0.001541
vt 0.495149 0.490729
vt 0.005961 0.490729
vt 0.005961 0.001541
vt 0.495149 0.001541
vt 0.495149 0.490729
vt 0.005961 0.490729
vt 0.005961 0.001541
vt 0.495149 0.001541
vt 0.495149 0.490729
vt 0.005961 0.490729
vt 0.005961 0.001541
vt 0.495149 0.001541
vt 0.495149 0.490729
vt 0.005961 0.490729
vt 0.005961 0.001541
vt 0.495149 0.001541
vt 0.495149 0.490729
vt 0.005961 0.490729
vt 0.702723 0.141502
vt 0.654102 0.141629
vt 0.653909 0.067419
vt 0.702530 0.067293
vt 0.605480 0.141755
vt 0.605287 0.067546
vt 0.556859 0.141882
vt 0.556666 0.067672
vt 0.508238 0.142008
vt 0.508044 0.067799
vt 0.994452 0.140743
vt 0.945830 0.140869
vt 0.945637 0.066660
vt 0.994259 0.066533
vt 0.897209 0.140996
vt 0.897016 0.066786
vt 0.848588 0.141123
vt 0.848394 0.066913
vt 0.799966 0.141249
vt 0.799773 0.067039
vt 0.751345 0.141376
vt 0.751152 0.067166
vt 0.006449 0.001408
vt 0.495637 0.001408
vt 0.495637 0.490596
vt 0.006449 0.490596
vt 0.006449 0.001408
vt 0.495637 0.001408
vt 0.495637 0.490596
vt 0.006449 0.490596
vt 0.006449 0.001408
vt 0.495637 0.001408
vt 0.495637 0.490596
vt 0.006449 0.490596
vt 0.006449 0.001408
vt 0.495637 0.001408
vt 0.495637 0.490596
vt 0.006449 0.490596
vt 0.006449 0.001408
vt 0.495637 0.001408
vt 0.495637 0.490596
vt 0.006449 0.490596
vt 0.006449 0.001408
vt 0.495637 0.001408
vt 0.495637 0.490596
vt 0.006449 0.490596
vt 0.006449 0.001408
vt 0.495637 0.001408
vt 0.495637 0.490596
vt 0.006449 0.490596
vt 0.006449 0.001408
vt 0.495637 0.001408
vt 0.495637 0.490596
vt 0.006449 0.490596
vt 0.006449 0.001408
vt 0.495637 0.001408
vt 0.495637 0.490596
vt 0.006449 0.490596
vt 0.006449 0.001408
vt 0.495637 0.001408
vt 0.495637 0.490596
vt 0.006449 0.490596
vt 0.652724 0.767187
vt 0.604102 0.767172
vt 0.604291 0.140844
vt 0.652913 0.140859
vt 0.555481 0.767157
vt 0.555669 0.140830
vt 0.506859 0.767142
vt 0.507048 0.140816
vt 0.993075 0.767289
vt 0.944453 0.767274
vt 0.944642 0.140947
vt 0.993264 0.140962
vt 0.895832 0.767260
vt 0.896021 0.140933
vt 0.847210 0.767245
vt 0.847399 0.140918
vt 0.798589 0.767230
vt 0.798777 0.140903
vt 0.749967 0.767216
vt 0.750156 0.140888
vt 0.701345 0.767201
vt 0.701534 0.140874
vt 0.006449 0.001408
vt 0.495637 0.001408
vt 0.495637 0.490596
vt 0.006449 0.490596
vt 0.006449 0.001408
vt 0.495637 0.001408
vt 0.495637 0.490596
vt 0.006449 0.490596
vt 0.006449 0.001408
vt 0.495637 0.001408
vt 0.495637 0.490596
vt 0.006449 0.490596
vt 0.006449 0.001408
vt 0.495637 0.001408
vt 0.495637 0.490596
vt 0.006449 0.490596
vt 0.006449 0.001408
vt 0.495637 0.001408
vt 0.495637 0.490596
vt 0.006449 0.490596
vt 0.006449 0.001408
vt 0.495637 0.001408
vt 0.495637 0.490596
vt 0.006449 0.490596
vt 0.006449 0.001408
vt 0.495637 0.001408
vt 0.495637 0.490596
vt 0.006449 0.490596
vt 0.006449 0.001408
vt 0.495637 0.001408
vt 0.495637 0.490596
vt 0.006449 0.490596
vt 0.006449 0.001408
vt 0.495637 0.001408
vt 0.495637 0.490596
vt 0.006449 0.490596
vt 0.006449 0.001408
vt 0.495637 0.001408
vt 0.495637 0.490596
vt 0.006449 0.490596
vt 0.006449 0.001408
vt 0.495637 0.001408
vt 0.495637 0.490596
vt 0.006449 0.490596
vt 0.006449 0.001408
vt 0.495637 0.001408
vt 0.495637 0.490596
vt 0.006449 0.490596
vt 0.006449 0.001408
vt 0.495637 0.001408
vt 0.495637 0.490596
vt 0.006449 0.490596
vt 0.006449 0.001408
vt 0.495637 0.001408
vt 0.495637 0.490596
vt 0.006449 0.490596
vt 0.006449 0.001408
vt 0.495637 0.001408
vt 0.495637 0.490596
vt 0.006449 0.490596
vt 0.006449 0.001408
vt 0.495637 0.001408
vt 0.495637 0.490596
vt 0.006449 0.490596
vt 0.006449 0.001408
vt 0.495637 0.001408
vt 0.495637 0.490596
vt 0.006449 0.490596
vt 0.006449 0.001408
vt 0.495637 0.001408
vt 0.495637 0.490596
vt 0.006449 0.490596
vt 0.006449 0.001408
vt 0.495637 0.001408
vt 0.495637 0.490596
vt 0.006449 0.490596
vt 0.006449 0.001408
vt 0.495637 0.001408
vt 0.495637 0.490596
vt 0.006449 0.490596
vt 0.097722 0.576260
vt 0.448599 0.576260
vt 0.448599 0.576260
vt 0.097722 0.573153
vt 0.448599 0.573153
vt 0.448599 0.576260
vt 0.097722 0.576260
vt 0.097722 0.927137
vt 0.448599 0.927137
vt 0.448599 0.927137
vt 0.097722 0.576260
vt 0.448599 0.576260
vt 0.448599 0.576260
vt 0.097722 0.927137
vt 0.448599 0.927137
vt 0.447563 0.924030
vt 0.096686 0.924030
vt 0.446528 0.924030
vt 0.446528 0.573153
vt 0.448599 0.927137
vt 0.448599 0.927137
vt 0.097722 0.927137
vt 0.097722 0.927137
vt 0.448599 0.927137
vt 0.448599 0.576260
vt 0.097722 0.576260
vt 0.097722 0.576260
vt 0.448599 0.927137
vt 0.448599 0.924030
vt 0.097722 0.924030
vt 0.097722 0.576260
vt 0.448599 0.576260
vt 0.097722 0.576260
vt 0.448599 0.927137
vt 0.096686 0.573153
vt 0.447563 0.573153
vt 0.097722 0.576260
vt 0.448599 0.576260
vt 0.095650 0.573153
vt 0.095650 0.924030
vt 0.097722 0.576260
vt 0.448599 0.576260
vt 0.448599 0.927137
vt 0.097722 0.927137
vn 0.000000 0.000000 1.000000
vn 0.000000 0.000000 1.000000
vn 0.000000 0.000000 1.000000
vn 0.000000 0.000000 1.000000
vn 0.000000 1.000000 0.000000
vn 0.000000 1.000000 0.000000
vn 0.000000 1.000000 0.000000
vn 0.000000 1.000000 0.000000
vn 0.000000 0.000000 -1.000000
vn 0.000000 0.000000 -1.000000
vn 0.000000 0.000000 -1.000000
vn 0.000000 0.000000 -1.000000
vn 1.000000 0.000000 0.000000
vn 1.000000 0.000000 0.000000
vn 1.000000 0.000000 0.000000
vn 1.000000 0.000000 0.000000
vn -1.000000 0.000000 0.000000
vn -1.000000 0.000000 0.000000
vn -1.000000 0.000000 0.000000
vn -1.000000 0.000000 0.000000
vn 0.000000 0.000000 1.000000
vn 0.000000 0.000000 1.000000
vn 0.000000 0.000000 1.000000
vn 0.000000 0.000000 1.000000
vn 0.000000 1.000000 0.000000
vn 0.000000 1.000000 0.000000
vn 0.000000 1.000000 0.000000
vn 0.000000 1.000000 0.000000
vn 0.000000 0.000000 -1.000000
vn 0.000000 0.000000 -1.000000
vn 0.000000 0.000000 -1.000000
vn 0.000000 0.000000 -1.000000
vn 1.000000 0.000000 0.000000
vn 1.000000 0.000000 0.000000
vn 1.000000 0.000000 0.000000
vn 1.000000 0.000000 0.000000
vn -1.000000 0.000000 0.000000
vn -1.000000 0.000000 0.000000
vn -1.000000 0.000000 0.000000
vn -1.000000 0.000000 0.000000
vn 0.587785 0.000000 -0.809017
vn 0.587786 0.000000 -0.809017
vn 0.587786 0.000000 -0.809017
vn 0.587786 0.000000 -0.809017
vn -0.000000 0.000000 -1.000000
vn -0.000000 0.000000 -1.000000
vn -0.000000 0.000000 -1.000000
vn -0.000000 0.000000 -1.000000
vn -0.587785 0.000000 -0.809017
vn -0.587786 0.000000 -0.809017
vn -0.587785 0.000000 -0.809017
vn -0.587786 0.000000 -0.809017
vn -0.951057 0.000000 -0.309017
vn -0.951057 0.000000 -0.309017
vn -0.951057 0.000000 -0.309017
vn -0.951057 0.000000 -0.309017
vn -0.951057 0.000000 0.309017
vn -0.951057 0.000000 0.309017
vn -0.951057 0.000000 0.309017
vn -0.951057 0.000000 0.309017
vn -0.587785 0.000000 0.809017
vn -0.587785 0.000000 0.809017
vn -0.587785 0.000000 0.809017
vn -0.587785 0.000000 0.809017
vn 0.000000 0.000000 1.000000
vn 0.000000 0.000000 1.000000
vn 0.000000 0.000000 1.000000
vn 0.000000 0.000000 1.000000
vn 0.587785 0.000000 0.809017
vn 0.587785 0.000000 0.809017
vn 0.587785 0.000000 0.809017
vn 0.587785 0.000000 0.809017
vn 0.951057 0.000000 0.309017
vn 0.951057 0.000000 0.309017
vn 0.951057 0.000000 0.309017
vn 0.951057 0.000000 0.309017
vn 0.951057 0.000000 -0.309017
vn 0.951057 0.000000 -0.309017
vn 0.951057 0.000000 -0.309017
vn 0.951057 0.000000 -0.309017
vn 0.000000 0.000000 -1.000000
vn 0.000000 0.000000 -1.000000
vn 0.000000 0.000000 -1.000000
vn 0.000000 0.000000 -1.000000
vn -0.587785 0.000000 -0.809017
vn -0.587785 0.000000 -0.809017
vn -0.587785 0.000000 -0.809017
vn -0.587785 0.000000 -0.809017
vn -0.951057 0.000000 -0.309017
vn -0.951057 0.000000 -0.309017
vn -0.951057 0.000000 -0.309017
vn -0.951057 0.000000 -0.309017
vn -0.951057 0.000000 0.309017
vn -0.951057 0.000000 0.309017
vn -0.951057 0.000000 0.309017
vn -0.951057 0.000000 0.309017
vn -0.587784 0.000000 0.809018
vn -0.587784 0.000000 0.809018
vn -0.587784 0.000000 0.809018
vn -0.587784 0.000000 0.809018
vn 0.000000 0.000000 1.000000
vn 0.000000 0.000000 1.000000
vn 0.000000 0.000000 1.000000
vn 0.000000 0.000000 1.000000
vn 0.587785 0.000000 0.809017
vn 0.587785 0.000000 0.809017
vn 0.587785 0.000000 0.809017
vn 0.587785 0.000000 0.809017
vn 0.951057 0.000000 0.309017
vn 0.951057 0.000000 0.309017
vn 0.951057 0.000000 0.309017
vn 0.951057 0.000000 0.309017
vn 0.951057 0.000000 -0.309017
vn 0.951057 0.000000 -0.309017
vn 0.951057 0.000000 -0.309017
vn 0.951057 0.000000 -0.309017
vn 0.587786 0.000000 -0.809017
vn 0.587786 0.000000 -0.809017
vn 0.587786 0.000000 -0.809017
vn 0.587786 0.000000 -0.809017
vn -0.000001 0.000000 -1.000000
vn -0.000001 0.000000 -1.000000
vn -0.000001 0.000000 -1.000000
vn -0.000001 0.000000 -1.000000
vn -0.584144 0.000477 -0.811650
vn -0.584144 0.000477 -0.811650
vn -0.584144 0.000477 -0.811650
vn -0.584144 0.000477 -0.811650
vn -0.951056 0.000000 -0.309017
vn -0.951056 0.000000 -0.309017
vn -0.951056 0.000000 -0.309017
vn -0.951056 0.000000 -0.309017
vn -0.951056 0.000000 0.309017
vn -0.951056 0.000000 0.309017
vn -0.951057 0.000000 0.309017
vn -0.951056 0.000000 0.309017
vn -0.587785 0.000000 0.809017
vn -0.587785 0.000000 0.809017
vn -0.587785 0.000000 0.809017
vn -0.587785 0.000000 0.809017
vn 0.000000 0.000000 1.000000
vn 0.000000 0.000000 1.000000
vn 0.000000 0.000000 1.000000
vn 0.000000 0.000000 1.000000
vn 0.587786 0.000000 0.809017
vn 0.587786 0.000000 0.809017
vn 0.587786 0.000000 0.809017
vn 0.587785 0.000000 0.809017
vn 0.951056 0.000000 0.309017
vn 0.951056 0.000000 0.309017
vn 0.951056 0.000000 0.309017
vn 0.951056 0.000000 0.309017
vn 0.951056 0.000000 -0.309017
vn 0.951056 0.000000 -0.309017
vn 0.951057 0.000000 -0.309017
vn 0.951057 0.000000 -0.309017
vn 0.584191 0.000471 -0.811616
vn 0.584191 0.000471 -0.811616
vn 0.584191 0.000471 -0.811616
vn 0.584191 0.000471 -0.811616
vn 0.000000 -1.000000 0.000000
vn 0.000000 -1.000000 0.000000
vn 0.000000 -1.000000 0.000000
vn 0.000000 -1.000000 0.000000
vn 0.000000 1.000000 0.000000
vn 0.000000 1.000000 0.000000
vn 0.000000 1.000000 0.000000
vn 0.000000 1.000000 0.000000
vn 0.000000 -1.000000 0.000000
vn 0.000000 -1.000000 0.000000
vn 0.000000 -1.000000 0.000000
vn 0.000000 -1.000000 0.000000
vn 0.000000 1.000000 0.000000
vn 0.000000 1.000000 0.000000
vn 0.000000 1.000000 0.000000
vn 0.000000 1.000000 0.000000
vn 0.000000 -1.000000 0.000000
vn 0.000000 -1.000000 0.000000
vn 0.000000 -1.000000 0.000000
vn 0.000000 -1.000000 0.000000
vn 0.000000 1.000000 0.000000
vn 0.000000 1.000000 0.000000
vn 0.000000 1.000000 0.000000
vn 0.000000 1.000000 0.000000
vn 0.000000 -1.000000 0.000000
vn 0.000000 -1.000000 0.000000
vn 0.000000 -1.000000 0.000000
vn 0.000000 -1.000000 0.000000
vn 0.000000 1.000000 0.000000
vn 0.000000 1.000000 0.000000
vn 0.000000 1.000000 0.000000
vn 0.000000 1.000000 0.000000
vn 0.000000 -1.000000 0.000000
vn 0.000000 -1.000000 0.000000
vn 0.000000 -1.000000 0.000000
vn 0.000000 -1.000000 0.000000
vn 0.000000 1.000000 0.000000
vn 0.000000 1.000000 0.000000
vn 0.000000 1.000000 0.000000
vn 0.000000 1.000000 0.000000
vn 0.000000 -1.000000 0.000000
vn 0.000000 -1.000000 0.000000
vn 0.000000 -1.000000 0.000000
vn 0.000000 -1.000000 0.000000
vn 0.000000 1.000000 0.000000
vn 0.000000 1.000000 0.000000
vn 0.000000 1.000000 0.000000
vn 0.000000 1.000000 0.000000
vn 0.000000 -1.000000 0.000000
vn 0.000000 -1.000000 0.000000
vn 0.000000 -1.000000 0.000000
vn 0.000000 -1.000000 0.000000
vn 0.000000 1.000000 0.000000
vn 0.000000 1.000000 0.000000
vn 0.000000 1.000000 0.000000
vn 0.000000 1.000000 0.000000
vn 0.000000 -1.000000 0.000000
vn 0.000000 -1.000000 0.000000
vn 0.000000 -1.000000 0.000000
vn 0.000000 -1.000000 0.000000
vn 0.000000 1.000000 0.000000
vn 0.000000 1.000000 0.000000
vn 0.000000 1.000000 0.000000
vn 0.000000 1.000000 0.000000
vn 0.000000 -1.000000 0.000000
vn 0.000000 -1.000000 0.000000
vn 0.000000 -1.000000 0.000000
vn 0.000000 -1.000000 0.000000
vn 0.000000 1.000000 0.000000
vn 0.000000 1.000000 0.000000
vn 0.000000 1.000000 0.000000
vn 0.000000 1.000000 0.000000
vn 0.000000 -1.000000 0.000000
vn 0.000000 -1.000000 0.000000
vn 0.000000 -1.000000 0.000000
vn 0.000000 -1.000000 0.000000
vn 0.000000 1.000000 0.000000
vn 0.000000 1.000000 0.000000
vn 0.000000 1.000000 0.000000
vn 0.000000 1.000000 0.000000
vn -0.322827 0.946451 0.003584
vn -0.070314 0.973769 0.216402
vn -0.285530 0.957654 0.037031
vn 0.185923 0.959915 0.209752
vn 0.185923 0.959915 0.209752
vn -0.159410 0.932937 0.322826
vn -0.157992 0.933313 0.322438
vn -0.028375 0.987525 -0.154883
vn 0.037401 0.992649 -0.115108
vn 0.427676 0.893187 0.138960
vn -0.013378 0.988889 -0.148052
vn 0.683427 0.695426 0.222059
vn 0.102807 0.990292 -0.093555
vn 0.312794 0.896007 0.315170
vn 0.312794 0.896007 0.315170
vn 0.683427 0.695426 0.222059
vn 0.683427 0.695426 0.222059
vn 0.436617 0.888858 0.138913
vn 0.475074 0.866751 0.151815
vn 0.683427 0.695426 0.222059
vn 0.043090 0.997086 0.062948
vn 0.475074 0.866751 0.151815
vn 0.436617 0.888858 0.138913
vn 0.040001 0.997251 0.062369
vn -0.191836 0.912763 0.360642
vn -0.200503 0.910718 0.361098
vn 0.312794 0.896007 0.315170
vn 0.312794 0.896007 0.315170
vn -0.013378 0.988889 -0.148052
vn 0.102807 0.990292 -0.093555
vn -0.097624 0.977020 -0.189477
vn -0.098780 0.976837 -0.189823
vn -0.098780 0.976837 -0.189823
vn -0.097624 0.977020 -0.189477
vn 0.037401 0.992649 -0.115108
vn -0.028375 0.987525 -0.154883
vn -0.157992 0.933313 0.322438
vn -0.159410 0.932937 0.322826
vn -0.200503 0.910718 0.361098
vn -0.191836 0.912763 0.360642
vn -0.322827 0.946451 0.003584
vn -0.285530 0.957654 0.037031
vn 0.043090 0.997086 0.062948
vn 0.040001 0.997251 0.062369
s off
g Pillar
usemtl Pillar_Broke_initialShadingGroup
f 1/1/1 2/2/2 4/3/3 3/4/4
f 3/5/5 4/6/6 6/7/7 5/8/8
f 5/9/9 6/10/10 8/11/11 7/12/12
f 2/13/13 8/14/14 6/15/15 4/16/16
f 7/17/17 1/18/18 3/19/19 5/20/20
f 9/21/21 10/22/22 12/23/23 11/24/24
f 11/25/25 12/26/26 14/27/27 13/28/28
f 13/29/29 14/30/30 16/31/31 15/32/32
f 10/33/33 16/34/34 14/35/35 12/36/36
f 15/37/37 9/38/38 11/39/39 13/40/40
f 17/41/41 18/42/42 28/43/43 27/44/44
f 18/42/45 19/45/46 29/46/47 28/43/48
f 19/45/49 20/47/50 30/48/51 29/46/52
f 20/47/53 21/49/54 31/50/55 30/48/56
f 21/51/57 22/52/58 32/53/59 31/54/60
f 22/52/61 23/55/62 33/56/63 32/53/64
f 23/55/65 24/57/66 34/58/67 33/56/68
f 24/57/69 25/59/70 35/60/71 34/58/72
f 25/59/73 26/61/74 36/62/75 35/60/76
f 26/61/77 17/41/78 27/44/79 36/62/80
f 57/63/81 58/64/82 59/65/83 60/66/84
f 58/67/85 61/68/86 62/69/87 59/70/88
f 61/71/89 63/72/90 64/73/91 62/74/92
f 63/75/93 65/76/94 66/77/95 64/78/96
f 65/79/97 67/80/98 68/81/99 66/82/100
f 67/83/101 69/84/102 70/85/103 68/86/104
f 69/87/105 71/88/106 72/89/107 70/90/108
f 71/91/109 73/92/110 74/93/111 72/94/112
f 73/95/113 75/96/114 76/97/115 74/98/116
f 75/99/117 57/100/118 60/101/119 76/102/120
f 37/103/121 38/104/122 48/105/123 47/106/124
f 38/104/125 39/107/126 49/108/127 48/105/128
f 39/107/129 40/109/130 50/110/131 49/108/132
f 40/111/133 41/112/134 51/113/135 50/114/136
f 41/112/137 42/115/138 52/116/139 51/113/140
f 42/115/141 43/117/142 53/118/143 52/116/144
f 43/117/145 44/119/146 54/120/147 53/118/148
f 44/119/149 45/121/150 55/122/151 54/120/152
f 45/121/153 46/123/154 56/124/155 55/122/156
f 46/123/157 37/103/158 47/106/159 56/124/160
f 28/125/161 29/126/162 58/127/163 57/128/164
f 38/129/165 37/130/166 60/131/167 59/132/168
f 29/133/169 30/134/170 61/135/171 58/136/172
f 39/137/173 38/138/174 59/139/175 62/140/176
f 30/141/177 31/142/178 63/143/179 61/144/180
f 40/145/181 39/146/182 62/147/183 64/148/184
f 31/149/185 32/150/186 65/151/187 63/152/188
f 41/153/189 40/154/190 64/155/191 66/156/192
f 32/157/193 33/158/194 67/159/195 65/160/196
f 42/161/197 41/162/198 66/163/199 68/164/200
f 33/165/201 34/166/202 69/167/203 67/168/204
f 43/169/205 42/170/206 68/171/207 70/172/208
f 34/173/209 35/174/210 71/175/211 69/176/212
f 44/177/213 43/178/214 70/179/215 72/180/216
f 35/181/217 36/182/218 73/183/219 71/184/220
f 45/185/221 44/186/222 72/187/223 74/188/224
f 36/189/225 27/190/226 75/191/227 73/192/228
f 46/193/229 45/194/230 74/195/231 76/196/232
f 27/197/233 28/198/234 57/199/235 75/200/236
f 37/201/237 46/202/238 76/203/239 60/204/240
f 48/231/241 49/206/242 82/232/243
f 49/208/244 50/209/245 81/233/246 82/234/247
f 51/235/248 81/236/249 50/214/250
f 53/237/251 54/216/252 80/238/253
f 79/239/254 80/240/255 54/220/256 55/221/257
f 56/241/258 79/242/259 55/224/260
f 78/243/261 79/223/262 56/222/263 47/244/264
f 78/245/265 77/246/266 80/219/267 79/218/268
f 53/215/269 80/217/270 77/247/271 52/248/272
f 52/230/273 77/229/274 81/213/275 51/212/276
f 82/211/277 81/210/278 77/228/279 78/227/280
f 48/205/281 82/207/282 78/225/283 47/226/284
